<?xml version="1.0" encoding="utf-8"?><svg xmlns="http://www.w3.org/2000/svg" xmlns:xlink="http://www.w3.org/1999/xlink"><symbol viewBox="0 0 48 48" id="about" xmlns="http://www.w3.org/2000/svg"><path fill="#2196F3" d="M37 40H11l-6 6V12c0-3.3 2.7-6 6-6h26c3.3 0 6 2.7 6 6v22c0 3.3-2.7 6-6 6z"/><g fill="#fff"><path d="M22 20h4v11h-4z"/><circle cx="24" cy="15" r="2"/></g></symbol><symbol viewBox="0 0 48 48" id="approval" xmlns="http://www.w3.org/2000/svg"><path fill="#8BC34A" d="M24 3l4.7 3.6 5.8-.8 2.2 5.5 5.5 2.2-.8 5.8L45 24l-3.6 4.7.8 5.8-5.5 2.2-2.2 5.5-5.8-.8L24 45l-4.7-3.6-5.8.8-2.2-5.5-5.5-2.2.8-5.8L3 24l3.6-4.7-.8-5.8 5.5-2.2 2.2-5.5 5.8.8z"/><path fill="#CCFF90" d="M34.6 14.6L21 28.2l-5.6-5.6-2.8 2.8 8.4 8.4 16.4-16.4z"/></symbol><symbol viewBox="0 0 48 48" id="assistant" xmlns="http://www.w3.org/2000/svg"><g fill="#FFA726"><circle cx="10" cy="26" r="4"/><circle cx="38" cy="26" r="4"/></g><path fill="#FFB74D" d="M39 19c0-12.7-30-8.3-30 0v10c0 8.3 6.7 15 15 15s15-6.7 15-15V19z"/><path fill="#FF5722" d="M24 3C14.6 3 7 10.6 7 20v3.4L9 25v-3l21-9.8 9 9.8v3l2-1.6V20c0-8-5.7-17-17-17z"/><g fill="#784719"><circle cx="31" cy="26" r="2"/><circle cx="17" cy="26" r="2"/></g><path fill="#757575" d="M43 24c-.6 0-1 .4-1 1v-7c0-8.8-7.2-16-16-16h-7c-.6 0-1 .4-1 1s.4 1 1 1h7c7.7 0 14 6.3 14 14v10c0 .6.4 1 1 1s1-.4 1-1v2c0 3.9-3.1 7-7 7H24c-.6 0-1 .4-1 1s.4 1 1 1h11c5 0 9-4 9-9v-5c0-.6-.4-1-1-1z"/><g fill="#37474F"><path d="M43 22h-1c-1.1 0-2 .9-2 2v4c0 1.1.9 2 2 2h1c1.1 0 2-.9 2-2v-4c0-1.1-.9-2-2-2z"/><circle cx="24" cy="38" r="2"/></g></symbol><symbol viewBox="0 0 48 48" id="automatic" xmlns="http://www.w3.org/2000/svg"><path fill="#3F51B5" d="M39 43H9c-2.2 0-4-1.8-4-4V9c0-2.2 1.8-4 4-4h30c2.2 0 4 1.8 4 4v30c0 2.2-1.8 4-4 4z"/><path fill="#B3E5FC" d="M33.6 25.4c.1-.4.1-.9.1-1.4s0-.9-.1-1.4l2.8-2c.3-.2.4-.6.2-.9l-2.7-4.6c-.2-.3-.5-.4-.8-.3L30 16.3c-.7-.6-1.5-1-2.4-1.4l-.3-3.4c0-.3-.3-.6-.6-.6h-5.3c-.3 0-.6.3-.6.6l-.4 3.5c-.9.3-1.6.8-2.4 1.4L14.9 15c-.3-.1-.7 0-.8.3l-2.7 4.6c-.2.3-.1.7.2.9l2.8 2c-.1.4-.1.9-.1 1.4s0 .9.1 1.4l-2.8 2c-.3.2-.4.6-.2.9l2.7 4.6c.2.3.5.4.8.3L18 32c.7.6 1.5 1 2.4 1.4l.3 3.4c0 .3.3.6.6.6h5.3c.3 0 .6-.3.6-.6l.3-3.4c.9-.3 1.6-.8 2.4-1.4l3.1 1.4c.3.1.7 0 .8-.3l2.7-4.6c.2-.3.1-.7-.2-.9l-2.7-2.2zM24 29c-2.8 0-5-2.2-5-5s2.2-5 5-5 5 2.2 5 5-2.2 5-5 5z"/></symbol><symbol viewBox="0 0 48 48" id="biotech" xmlns="http://www.w3.org/2000/svg"><path fill="#AD1457" d="M36 4c0 9.3-6 13.2-12.8 17.8C16.1 26.5 8 31.8 8 44h4c0-10.1 6.5-14.4 13.4-18.9C32.2 20.6 40 15.4 40 4h-4z"/><path fill="#AD1457" d="M38 41H11c-.6 0-1-.4-1-1s.4-1 1-1h27c.6 0 1 .4 1 1s-.4 1-1 1zM36 37H12c-.6 0-1-.4-1-1s.4-1 1-1h24c.6 0 1 .4 1 1s-.4 1-1 1zM34 33H14c-.6 0-1-.4-1-1s.4-1 1-1h20c.6 0 1 .4 1 1s-.4 1-1 1zM29 29H19c-.6 0-1-.4-1-1s.4-1 1-1h10c.6 0 1 .4 1 1s-.4 1-1 1z"/><path fill="#E91E63" d="M37 9H10c-.6 0-1-.4-1-1s.4-1 1-1h27c.6 0 1 .4 1 1s-.4 1-1 1zM36 13H12c-.6 0-1-.4-1-1s.4-1 1-1h24c.6 0 1 .4 1 1s-.4 1-1 1zM34 17H14c-.6 0-1-.4-1-1s.4-1 1-1h20c.6 0 1 .4 1 1s-.4 1-1 1zM29 21H19c-.6 0-1-.4-1-1s.4-1 1-1h10c.6 0 1 .4 1 1s-.4 1-1 1z"/><path fill="#E91E63" d="M40 44h-4c0-10.1-6.5-14.4-13.4-18.9C15.8 20.6 8 15.4 8 4h4c0 9.3 6 13.2 12.8 17.8C31.9 26.5 40 31.8 40 44z"/></symbol><symbol viewBox="0 0 48 48" id="bookmark" xmlns="http://www.w3.org/2000/svg"><path fill="#F44336" d="M37 43l-13-6-13 6V9c0-2.2 1.8-4 4-4h18c2.2 0 4 1.8 4 4v34z"/></symbol><symbol viewBox="0 0 48 48" id="business" xmlns="http://www.w3.org/2000/svg"><g fill="#263238"><path d="M11 44H9c-.6 0-1-.4-1-1v-2h4v2c0 .6-.4 1-1 1zM39 44h-2c-.6 0-1-.4-1-1v-2h4v2c0 .6-.4 1-1 1z"/></g><path fill="#37474F" d="M27 7h-6c-1.7 0-3 1.3-3 3v3h2v-3c0-.6.4-1 1-1h6c.6 0 1 .4 1 1v3h2v-3c0-1.7-1.3-3-3-3z"/><path fill="#78909C" d="M40 43H8c-2.2 0-4-1.8-4-4V15c0-2.2 1.8-4 4-4h32c2.2 0 4 1.8 4 4v24c0 2.2-1.8 4-4 4z"/></symbol><symbol viewBox="0 0 48 48" id="business_contact" xmlns="http://www.w3.org/2000/svg"><path fill="#673AB7" d="M40 7H8c-2.2 0-4 1.8-4 4v26c0 2.2 1.8 4 4 4h5v-1.3c-.6-.3-1-1-1-1.7 0-1.1.9-2 2-2s2 .9 2 2c0 .7-.4 1.4-1 1.7V41h18v-1.3c-.6-.3-1-1-1-1.7 0-1.1.9-2 2-2s2 .9 2 2c0 .7-.4 1.4-1 1.7V41h5c2.2 0 4-1.8 4-4V11c0-2.2-1.8-4-4-4z"/><g fill="#D1C4E9"><circle cx="24" cy="18" r="4"/><path d="M31 28s-1.9-4-7-4-7 4-7 4v2h14v-2z"/></g></symbol><symbol viewBox="0 0 48 48" id="camera_identification" xmlns="http://www.w3.org/2000/svg"><path fill="#512DA8" d="M33.9 12.1H14.2L17.6 7c.4-.6 1-.9 1.7-.9h9.6c.7 0 1.3.3 1.7.9l3.3 5.1z"/><path fill="#8667C4" d="M14 11H8V9.2C8 8.5 8.5 8 9.2 8h3.6c.7 0 1.2.5 1.2 1.2V11z"/><path fill="#5E35B1" d="M40 42H8c-2.2 0-4-1.8-4-4V14c0-2.2 1.8-4 4-4h32c2.2 0 4 1.8 4 4v24c0 2.2-1.8 4-4 4z"/><circle fill="#512DA8" cx="24" cy="26" r="12"/><circle fill="#B388FF" cx="24" cy="26" r="9"/><g fill="#616161"><path d="M38.912 40.703l1.696-1.697 7.353 7.353-1.697 1.696z"/><circle cx="35" cy="35" r="10"/></g><path fill="#37474F" d="M42.305 44.106l1.697-1.696 3.96 3.959-1.698 1.697z"/><circle fill="#64B5F6" cx="35" cy="35" r="8"/><path fill="#BBDEFB" d="M39.3 31.4c-1.1-1.3-2.6-2-4.2-2s-3.2.7-4.2 2c-.2.3-.2.6.1.9.3.2.6.2.9-.1.8-1 2-1.5 3.3-1.5s2.5.6 3.3 1.5c.1.1.3.2.5.2.1 0 .3 0 .4-.1.1-.2.1-.6-.1-.9z"/><path fill="#C7A7FF" d="M29 23c-1.2-1.4-3-2.2-4.8-2.2-1.8 0-3.6.8-4.8 2.2-.5.5-.4 1.3.1 1.8s1.3.4 1.8-.1c1.5-1.7 4.3-1.7 5.8 0 .3.3.6.4 1 .4.3 0 .6-.1.9-.3.4-.4.5-1.3 0-1.8z"/><ellipse fill="#8667C4" cx="11" cy="13.5" rx="2" ry="1.5"/></symbol><symbol viewBox="0 0 0 0" id="symbols" xmlns="http://www.w3.org/2000/svg"/></svg>