<svg viewBox="0 0 300 1200">
<style type="text/css">
	.st0{
        fill:none;
        stroke:#70706E;
        stroke-width:0.7484;
        stroke-miterlimit:10;
    }
	.st1{
        fill:#FFFFFF;
    }
</style>
<g id="Layer_1">
	<rect x="0.3" y="15.4" class="st0" width="299.4" height="299.4"/>
	<rect x="0.3" y="316.1" class="st0" width="299.4" height="299.4"/>
	<rect x="0.3" y="614.9" class="st0" width="299.4" height="299.4"/>
	<rect x="0.3" y="913.8" class="st0" width="299.4" height="299.4"/>
	<g id="castle">
		<polygon class="st1" points="105.9,155 102.7,148 100,148 96.2,155 		"/>
		<polygon class="st1" points="100.4,146.5 102.3,146.5 101.5,144.4 		"/>
		<polygon class="st1" points="112.2,147.9 110.8,155.2 203.2,155.2 200.6,147.9 197.9,147.9 196.2,149.9 194.2,147.9 		"/>
		<polygon class="st1" points="125.8,139.1 121.1,130.1 117.8,130.1 112.4,139.1 		"/>
		<polygon class="st1" points="200.3,146.8 199.3,143.9 198.2,146.8 		"/>
		<polygon class="st1" points="169.7,129 169.7,120.4 167.5,120.4 167.5,117.7 155.8,117.7 155.8,120.4 153.9,120.4 153.2,122.4 
			151.4,119.6 148.3,126.7 146.5,126.7 147,124.8 144,117.6 142.3,117.6 138.9,124.8 139.3,126.7 138,126.7 138.9,129 		"/>
		<polygon class="st1" points="143.1,115 142.5,116.4 143.7,116.4 		"/>
		<polygon class="st1" points="167.5,116.7 167.5,112.4 169.1,109 167.5,107.4 167.5,103.5 155.9,103.5 155.9,107.4 154.4,109 
			155.8,112.4 155.8,116.7 		"/>
		<polygon class="st1" points="118.2,129.4 120.9,129.4 119.6,126.7 		"/>
		<polygon class="st1" points="101.3,141.5 101.3,139.1 96.1,140.5 		"/>
		<polygon class="st1" points="119.7,123.7 119.7,121.3 114.5,122.7 		"/>
		<polygon class="st1" points="143,111.9 143,109.5 137.8,110.9 		"/>
		<polygon class="st1" points="177,122.5 177,120.2 171.8,121.5 		"/>
		<polygon class="st1" points="189.5,130.3 189.5,127.9 184.3,129.3 		"/>
		<path class="st1" d="M112.7,144.6c0,0.8-0.1,1.5-0.3,2.2c23.6,0,47.2,0,70.7,0c-0.5-0.6-1-1.3-1.4-2.1c-0.8-1.5-1.4-3-1.7-4.6l0,0
			h-5.4l-0.6,0.8l-1-0.8l-42,0l-1.6,4l-3.3,0l1.8-4h-15.8l0,0C112.6,141.6,112.8,143.1,112.7,144.6L112.7,144.6z"/>
		<polygon class="st1" points="189.5,133.2 187.2,139 191.4,139 		"/>
		<polygon class="st1" points="191.7,140.1 186.8,140.1 184.5,146.8 194,146.8 		"/>
		<path class="st1" d="M207.4,179.9l-1.7-6.1l-16.4,0l0,0c-0.4,0.9-1,1.7-1.6,2.4c-0.6,0.8-1.3,1.5-2,2.1c-0.7,0.6-1.6,1.2-2.4,1.6
			l0,0L207.4,179.9L207.4,179.9z"/>
		<path class="st1" d="M169.7,103c-0.1,0.1-0.1,0.1-0.2,0.2c8.6,1.8,16.9,5.1,24.4,9.7c7.5,4.6,14.1,10.6,19.5,17.6
			c5.4,7,9.5,14.9,12.1,23.3s3.7,17.3,3.2,26.1l0,0h1.1l0,0c0.6-9-0.4-18-3-26.6s-6.8-16.7-12.3-23.8c-5.5-7.1-12.3-13.2-20-17.9
			c-7.7-4.7-16.2-7.9-25-9.6C169.9,102.3,170,102.6,169.7,103L169.7,103z"/>
		<path class="st1" d="M161.8,87.3l-7.3,14.8l0,0c-0.1,0.2-0.1,0.4,0.1,0.7c0.1,0.1,0.2,0.1,0.4,0.1c4.5,0,9,0,13.5,0
			c0.2,0,0.3,0,0.5-0.3c0.1-0.2,0.1-0.4,0-0.6l0,0L161.8,87.3L161.8,87.3z"/>
		<polygon class="st1" points="161.8,82.5 156.6,83.9 161.8,84.9 		"/>
		<path class="st1" d="M154.6,99.8c-7.1-0.4-14.3,0.1-21.3,1.7c-7,1.5-13.7,4.1-19.9,7.5c-6.2,3.5-11.9,7.9-15.9,11.4
			s-6.3,6.3-8.5,9.2c-2.1,2.9-4.1,5.8-5.8,9c-1.7,3.1-3.2,6.4-4.2,8.6c-1,2.3-1.7,3.5-2.2,4.9c-0.5,1.3-1,2.6-1.5,4
			c-0.5,1.4-1.2,2.8-1.9,4.2l0,0l2.5,1.2l0,0c0.5-2.8,1.3-5.6,2.2-8.4c0.5-1.4,1-2.7,2-5c1-2.3,2.5-5.4,4.2-8.5c1.7-3,3.6-6,5.7-8.7
			c2.1-2.8,4.4-5.5,8.3-9c3.9-3.5,9.4-7.8,15.5-11.3c6-3.4,12.6-6,19.4-7.6c6.8-1.6,13.8-2.3,20.8-2l0,0L154.6,99.8L154.6,99.8z"/>
		<polygon class="st1" points="177.1,125.1 175.7,129 178.7,129 		"/>
		<polygon class="st1" points="136.6,139.1 134.1,131.1 131.4,139.1 		"/>
		<path class="st1" d="M174.7,139h5.5v-2.8l1.1-1.3l-2.3-4.8h-3.8l-1.8,4.8l1.2,1.3l0,0C174.7,137.2,174.7,138.1,174.7,139
			L174.7,139z"/>
		<path class="st1" d="M139.3,139.1h33.3l0,0c-0.5-0.9-0.9-1.9-1.3-2.9c-0.8-2-1.3-4.1-1.6-6.1l0,0l-30.3,0l0,0
			C140.2,133,140.2,136.1,139.3,139.1L139.3,139.1z"/>
		<path class="st1" d="M93.4,179.1c0.2,0.2,0.3,0.4,0.4,0.6l0,0l41.6,0l0-6.1l-42,0l-1.4,5l0,0c0.2,0,0.5,0,0.7,0.1
			C93,178.8,93.2,178.9,93.4,179.1L93.4,179.1z"/>
		<path class="st1" d="M115,165.1c-7.2,0-14.4,0-21.6,0l0,0l0,6h42.1l0,0c0.2-1.1,0.5-2.1,0.9-3.2c-4.8-1.5-9.8-2-14.8-1.4
			c-0.1,0.4-0.2,0.8-0.4,1.2s-0.5,0.7-0.8,1c-1,0.8-2.3,1-3.5,0.5c-0.4-0.2-0.7-0.4-1-0.7c-0.6-0.6-1-1.4-1-2.2
			C114.8,165.9,114.9,165.5,115,165.1L115,165.1z"/>
		<path class="st1" d="M178.2,165.1L178.2,165.1l-16.4,0l0,0c0.5,0.6,1,1.2,1.4,1.9c0.9,1.4,1.6,2.8,2.1,4.2l0,0l3.4,0l0,0
			c0.8-1,1.7-1.9,2.7-2.7c1-0.8,2.1-1.5,3.2-2C175.7,165.9,176.9,165.4,178.2,165.1L178.2,165.1z"/>
		<path class="st1" d="M125.1,161.3c2.6-0.4,5.2-0.5,7.8-0.3c2.6,0.2,5.2,0.7,7.7,1.5c1.7-1.1,3.6-2.1,5.3-2.5
			c0.6-0.2,1.3-0.3,1.9-0.3c0.6-0.1,1.3-0.1,2.2-0.1c1,0,2.2,0.2,3.5,0.4c1.2,0.3,2.4,0.7,3.6,1.3c1.1,0.6,2.2,1.3,3.2,2.1l0,0h49.4
			l-5.9-6.6l-108.6-0.2l-4.9,6.8l27.3,0l0,0C120,162.5,122.5,161.7,125.1,161.3L125.1,161.3z"/>
		<path class="st1" d="M172.5,199.4c0,0.3,0.1,0.5,0.2,0.8c0.1,0.3,0.3,0.5,0.4,0.7c0.7,0.7,1.5,0.9,2.3,0.8
			c0.4-0.1,0.9-0.3,1.4-0.6c0.5-0.4,0.7-0.9,0.8-1.3c0.1-1.3,0.1-2.6,0.1-3.9c0-1.3,0-2.6-0.1-3.7c0-1.1-0.1-2-0.1-2.8
			c0-0.9-0.1-1.8-0.1-2.3c0-0.6-0.1-0.8-0.1-1.1c0-0.2-0.1-0.5-0.1-0.7c-0.1-0.2-0.1-0.5-0.2-0.7c-0.2-0.5-0.4-0.9-0.9-1.4
			c-0.4-0.4-1-0.6-1.6-0.4c-0.2,0.1-0.3,0.2-0.5,0.3c-0.3,0.3-0.4,0.7-0.6,1.1c-0.1,0.2-0.1,0.4-0.2,0.6s-0.1,0.4-0.1,0.8
			c0,0.3-0.1,0.8-0.1,1.3c0,0.5-0.1,0.9-0.1,1.5c-0.1,1.1-0.1,2.4-0.3,3.7C172.3,194.5,172.3,197,172.5,199.4L172.5,199.4z"/>
		<path class="st1" d="M211.9,188.3c-0.5-1.9-1-3.7-1.5-5.6l0,0L211.9,188.3L211.9,188.3z"/>
		<path class="st1" d="M205.8,165.1l-20.5,0l0,0c0.7,0.1,1.4,0.4,2,0.7s1.2,0.8,1.7,1.4c0.5,0.5,0.9,1.2,1.2,1.8
			c0.3,0.7,0.4,1.4,0.5,2.1l0,0l15.1,0L205.8,165.1L205.8,165.1z"/>
		<path class="st1" d="M211.9,188.3l0.5,2l0,0c0.2,0.9,0.4,1.9,0.3,2c-0.1,0.2-0.6-0.5-1-1.1c-0.3-0.4-0.6-0.8-1.3-1.7
			c-0.7-0.9-1.8-2.3-2.4-3.1c-0.6-0.8-0.9-1.1-1.1-1.3c-0.5-0.5-0.9-0.9-1.4-1.3c-0.6-0.4-1.2-0.5-1.9-0.2c-0.2,0.1-0.4,0.2-0.6,0.4
			c-0.2,0.2-0.3,0.4-0.4,0.6c-0.9,1.9-1.4,3.8-1.7,5.7l0,0l-0.6,3.6l0,0c-0.4,1.9-0.4,3.8,0.3,5.7c0.1,0.2,0.2,0.4,0.4,0.6
			c0.6,0.5,1.3,0.7,2.1,0.4c0.2-0.1,0.5-0.2,0.6-0.3c0.6-0.5,0.8-1.1,0.9-1.7c0.3-2.6,0.6-5.2,1-7.8c1.1,2.4,2.5,4.8,4.4,7.1
			c0.7,0.8,1.4,1.5,2,1.7c1,0.4,2.1,0.2,3.2-0.5c0.2-0.2,0.5-0.4,0.7-0.6c0.4-0.4,0.7-0.9,1-1.4c0.9-1.6,1.1-3.3,1-5.1
			c0-1.1-0.2-2.3-0.5-3.4c-0.2-1-0.6-2-1-3c-0.4-1-0.9-1.9-1.4-2.8c-0.6-0.9-1.2-1.7-1.9-2.5c-0.6-0.7-1.2-1-1.9-0.9
			c-0.2,0-0.3,0.1-0.5,0.2c-0.6,0.3-0.7,0.8-0.6,1.3c0.1,0.6,0.2,1.2,0.3,1.8l0,0L211.9,188.3L211.9,188.3z"/>
		<path class="st1" d="M219.1,186.1c0.7,0.8,1.4,1.1,2.2,1.2l0,0l-1.1,2.4l0,0c-0.2,0-0.4,0.1-0.5,0.2c-0.7,0.6-0.9,1.2-0.6,2
			c0.1,0.2,0.1,0.3,0.3,0.5c-0.7,1.3-1.4,2.5-1.6,3.8c-0.2,1,0.2,2.1,0.7,3.1c0.2,0.4,0.4,0.8,0.6,1.2c0.2,0.3,0.4,0.6,0.7,0.8
			c0.3,0.2,0.6,0.4,0.9,0.6c1.4,0.6,3,0.5,4.6-0.1c1.2-0.4,2.3-0.9,3.4-1.5c1.1-0.5,2.2-1.1,2.8-1.5c0.6-0.3,0.7-0.5,0.9-0.6
			c0.6-0.7,0.5-1.5,0.1-2.3c-0.1-0.2-0.3-0.4-0.5-0.5c-0.9-0.8-2-0.6-3-0.4c-1.1,0.2-2.1,0.5-3.2,0.8c-1.1,0.4-2.2,0.8-2.5,0.4
			c-0.2-0.4,0.5-1.7,1.1-3c0.4,0.1,0.7,0.1,1.1,0.1c1.2,0,2.4,0,3.7,0c0,0,0,0,0.2-0.1c0.4-0.1,1.1-0.3,1.7-0.5
			c0.3-0.1,0.7-0.4,0.9-0.7c0.2-0.4,0.2-0.9,0.1-1.3c-0.1-0.2-0.2-0.4-0.3-0.6c-0.4-0.6-1-0.7-1.5-0.8c-1.3-0.1-2.6-0.1-3.9-0.2l0,0
			l0.1-1.3l0,0c1.1,0.1,2.1,0,3.2-0.1c1.5-0.2,2.9-0.5,4.4-0.7c0.3-0.1,0.6-0.2,0.9-0.5c0.6-0.5,0.7-1,0.4-1.6
			c-0.3-0.5-0.6-0.9-0.9-1.3c-0.4-0.4-0.8-0.7-1.2-1c-0.9-0.6-2-0.8-3.1-0.7c-2.9,0.1-5.6,0.2-8.5,1c-0.7,0.2-1.4,0.5-2.1,0.7
			c-0.3,0.2-0.5,0.4-0.6,0.6C218.5,184.8,218.5,185.5,219.1,186.1L219.1,186.1z"/>
		<path class="st1" d="M185.2,187.7c4.3-0.5,8.6-1,13-1.5c0.4-0.1,1-0.2,1.5-0.7c0.6-0.6,0.7-1,0.5-1.6c-0.1-0.2-0.3-0.5-0.7-0.9
			c-0.2-0.2-0.4-0.3-0.6-0.4c-0.2-0.1-0.4-0.2-0.8-0.3c-0.7-0.2-1.5-0.3-2.3-0.4c-0.4,0-0.8-0.1-1.6-0.1c-0.8,0-1.9,0-3.1,0.1
			c-2.3,0.2-4.5,0.7-6.8,1.4c-0.7,0.3-1.5,0.6-2.2,1.1c-0.3,0.2-0.7,0.5-0.9,0.7c-0.9,0.8-1.3,1.5-1.5,2.4c-0.1,0.4-0.1,0.8,0,1.2
			c0.1,0.4,0.2,0.8,0.5,1.2s0.5,0.7,0.9,0.9c0.7,0.5,1.5,0.6,2.2,0.8c1.5,0.3,3.1,0,4.6,0c1.4,0,2.8,0,4.2,0.3
			c0.6,0.1,1.3,0.3,1.9,0.5c0.6,0.2,1.2,0.5,1.7,0.8c0.4,0.3,0.5,0.6,0.3,1c-0.1,0.3-0.8,0.8-1.3,1.1c-0.2,0.1-0.4,0.2-0.6,0.3
			c-3.3,1.4-6.7,1.5-10.2,0.4c-0.1-0.1-0.2-0.1-0.3-0.3c-0.1-0.2-0.1-0.5,0.2-0.8c0.3-0.2,0.7-0.2,1.1-0.3c0.7,0,1.6,0.1,2.4,0.5
			c1.3,0.6,2.9,0.8,4.3,0.6c0.7-0.1,1.4-0.3,2.1-0.6c0.1-0.1,0.3-0.2,0.4-0.4c0.1-0.2,0.1-0.4,0.1-0.6c-0.1-0.3-0.3-0.7-0.8-1.1
			c-0.5-0.4-1.2-0.7-1.9-0.9c-0.2-0.1-0.5-0.1-1-0.2s-1.2-0.1-1.9-0.1c-0.7,0-1.4,0-2.1,0c-0.7,0-1.4,0.1-1.9,0.2
			c-0.5,0.1-0.8,0.1-1.1,0.2c-0.3,0.1-0.5,0.2-0.8,0.3c-0.3,0.1-0.5,0.3-0.7,0.4c-1,0.7-1.4,1.5-1.4,2.3c0,0.2,0,0.5,0.1,0.7
			c0.1,0.2,0.1,0.5,0.3,0.8c0.2,0.3,0.5,0.8,0.9,1.2c0.4,0.4,0.8,0.8,1.2,1.1c0.4,0.3,0.9,0.6,1.6,0.9c0.7,0.3,1.6,0.6,2.6,0.8
			c0.9,0.2,1.9,0.3,2.9,0.3c1,0,1.9,0,2.6-0.1s1.1-0.2,1.5-0.3c0.4-0.1,0.8-0.2,1.2-0.4c0.4-0.2,0.8-0.3,1.1-0.5
			c0.3-0.2,0.6-0.3,0.8-0.5s0.5-0.4,0.7-0.6c0.7-0.7,1.1-1.3,1.4-1.9c0.1-0.2,0.2-0.5,0.2-0.9c0.1-0.8,0.1-2.1-0.4-3.2
			c-0.2-0.5-0.5-1-0.8-1.5c-0.3-0.4-0.7-0.8-1.1-1.1c-0.9-0.7-1.9-1-2.9-1.1c-2.2-0.2-4.5-0.4-6.8-0.8
			C187,188.1,186.1,187.9,185.2,187.7L185.2,187.7z"/>
		<path class="st1" d="M101.5,191.9c0.2-1.1,0.4-2.4,0.7-3.7c0.2-0.7,0.4-1.3,0.5-1.9c0.2-0.6,0.3-1.1,0.5-1.6
			c0.1-0.5,0.3-1,0.4-1.4c0.1-0.7,0.1-0.8,0.1-1.2c0-0.3-0.1-0.7-0.3-1c-0.5-0.7-1.1-0.8-1.8-0.7c-0.5,0.1-0.9,0.5-1.2,0.9
			c-0.1,0.2-0.3,0.3-0.4,0.5c-0.1,0.2-0.2,0.4-0.4,0.8c-0.2,0.4-0.5,1.1-0.8,1.7c-0.8,1.9-1.4,4-1.8,5.9c-0.1,0.6-0.2,1.3-0.3,1.9
			c-0.1,1.2-0.1,2.4-0.1,3.6c0,0.5,0,1.1,0.1,1.6c0,0.5,0.1,0.9,0.3,1.3c0.2,0.4,0.4,0.8,0.6,1.1c0.5,0.6,1.1,1,1.5,1.3
			c0.8,0.4,1.5,0.4,2.4,0.3c1.1-0.1,2.2-0.7,3.3-1.5c0.3-0.2,0.5-0.4,0.9-0.7c0.8-0.6,1.8-1.5,2.8-2.4c0,0.9,0,1.7,0,2.6
			c0,0.9,0.1,1.7,0.2,2.3c0.1,0.6,0.2,0.9,0.2,1.2c0.2,0.7,0.4,1.3,0.8,1.9c0.2,0.3,0.5,0.7,0.8,1c0.3,0.3,0.7,0.5,1.1,0.7
			c0.4,0.2,0.9,0.2,1.2,0.3s0.5,0,0.6-0.1c0.3-0.1,0.5-0.3,0.7-0.6c0.2-0.3,0.3-0.8,0.3-1.2c0-0.2,0-0.4,0-0.8c0-0.4,0-1,0-1.5
			c0-0.6,0-1.1,0-2c0-0.9,0-2.1,0.1-3.3c0.1-2.3,0.5-4.7,1.1-7.1c1.2-0.3,2.5-0.6,3.1-0.8c0.7-0.2,0.8-0.2,0.9-0.3s0.2-0.1,0.3-0.1
			c0.2-0.1,0.5-0.4,0.9-0.7c1.4-1.4,1.7-3,1-4.6c-0.2-0.5-0.4-0.9-0.8-1.4c-0.2-0.2-0.3-0.4-0.5-0.6c-0.2-0.2-0.4-0.3-0.6-0.4
			s-0.5-0.2-0.8-0.2c-0.7-0.1-1.7-0.1-2.6,0.2c-0.4,0.2-0.8,0.4-1.5,0.9s-1.5,1.2-2.3,1.9c-1-0.1-1.9-0.3-2.9-0.6
			c-0.5-0.1-0.9-0.3-1.3-0.5c-0.3-0.2-0.6-0.3-0.8-0.5c-0.2-0.2-0.4-0.4-0.5-0.6s-0.2-0.5-0.3-0.6c-0.2-0.3-0.3-0.3-0.5-0.4
			c-0.2-0.1-0.4-0.1-0.6,0c-0.3,0.1-0.6,0.2-0.9,0.7c-0.2,0.3-0.3,0.7-0.4,1c-0.1,0.3-0.1,0.5,0,0.8c0,0.3,0.1,0.8,0.2,1.2
			c0.3,0.8,0.7,1.5,1.7,2.1c0.5,0.3,1.1,0.7,1.7,1.1c0.6,0.4,1.2,0.7,1.9,1c-0.4,1.6-0.8,3.1-1,4.7l0,0l-1.8-0.2l-4.2,1.4l0,0
			c-0.5,0.2-1,0.2-1.6,0c-0.4-0.3-0.4-0.6-0.2-1l0,0l0.1-0.2l0,0C101.4,193,101.5,192.5,101.5,191.9L101.5,191.9z"/>
		<path class="st1" d="M62.3,178.3C62.3,178.3,62.3,178.3,62.3,178.3L62.3,178.3l0.7,0.3l0,0C62.8,178.5,62.5,178.4,62.3,178.3
			L62.3,178.3L62.3,178.3L62.3,178.3z"/>
		<path class="st1" d="M96.5,196.3c0-0.7,0-1.3,0-1.8c0-0.4,0-0.6-0.1-0.8c0-0.2-0.1-0.4-0.3-1.9c-0.3-1.5-0.8-4.4-1.2-6.1
			c-0.3-1.7-0.5-2.2-0.6-2.7c-0.3-1-0.7-1.9-1.1-2.9c-0.1-0.1-0.2-0.3-0.3-0.4c-0.1-0.1-0.3-0.2-0.5-0.2c-0.3-0.1-0.8,0-1.3,0.2
			c-0.3,0.1-0.5,0.3-0.7,0.4c-0.5,0.4-0.8,1.1-1.2,1.7c-0.3,0.3-0.5,0.6-0.8,1s-0.6,0.8-1,1.2c-0.3,0.4-0.6,0.8-1.1,1.5
			c-0.4,0.7-1,1.6-1.6,2.6c-0.6,1-1.1,2-1.6,3l0,0l-1.3-0.1l0,0c0.7-2.2,1.2-4.4,1.5-6.7c0.2-2.3,0.3-4.8-0.1-7.3
			c-0.2-1.3-0.4-2.5-0.8-3.8s-0.8-2.4-1.2-3.3c-0.4-0.9-0.7-1.4-0.9-1.9c-0.3-0.5-0.6-1-1-1.5c-0.3-0.5-0.7-0.9-1.2-1.5
			c-0.5-0.5-1-1.1-1.6-1.8c-0.6-0.6-1.1-1.2-1.6-1.7c-0.4-0.4-0.8-0.7-1.1-0.9c-0.3-0.2-0.7-0.4-1.1-0.5c-0.4-0.1-0.8-0.2-1-0.2
			c-0.5-0.1-0.6,0-0.8,0.2c-0.4,0.3-0.5,0.6-0.4,0.9c0,0.1,0.1,0.1,0.3,0.4c0.2,0.3,0.7,0.8,1.1,1.3c0.8,1,1.6,2,2.1,2.9
			c0.2,0.4,0.5,0.9,0.7,1.4s0.6,1.3,0.9,2c0.6,1.4,1.2,2.7,1.5,4c0.2,0.6,0.3,1.2,0.4,1.9c0.1,0.6,0.2,1.3,0.2,2
			c0.1,2.2,0,4.6-0.4,6.8c-0.3,2.2-1,4.4-2.1,6.7c-0.5,1-1.2,2-1.9,2.9c-0.7,0.9-1.5,1.7-2.4,2.5c-0.9,0.7-1.9,1.4-2.9,2
			c-0.7,0.4-1.5,0.7-2.3,0.8c-0.4,0.1-0.8,0.1-1.2,0.1c-0.6,0-1.1-0.1-1.7-0.3c-0.3-0.1-0.5-0.2-0.7-0.4c-0.2-0.2-0.5-0.4-0.6-0.6
			c-0.4-0.5-0.6-1-0.6-1.6c0.6-0.5,1.2-1,1.7-1.5c0.6-0.5,1.1-1.1,1.6-1.7c1-1.1,1.8-2.2,2.4-3.2c0.3-0.5,0.6-1,0.9-1.5
			c0.3-0.5,0.5-1.1,0.8-1.8c0.3-0.7,0.5-1.7,0.6-2.7s0.1-2-0.1-3c-0.2-1-0.5-1.9-0.7-2.6c-0.3-0.6-0.5-1-0.7-1.3
			c-0.3-0.3-0.5-0.6-0.9-0.8c-1.1-0.7-2.3-0.8-3.5-0.7c-0.4,0-0.8,0.1-1.5,0.4c-0.7,0.3-1.7,0.7-2.6,1.3c-0.9,0.6-1.7,1.3-2.4,2.1
			c-0.7,0.8-1.2,1.8-1.5,2.5c-0.4,0.8-0.5,1.3-0.7,1.9c-0.5,1.7-0.9,3.4-0.9,5.1c0,0.5,0,1.1,0.1,1.6c0.1,0.5,0.2,1.1,0.3,2.1
			s0.4,2.5,0.6,4c-0.4,0.4-0.9,0.7-1.4,0.8c-0.3,0.1-0.5,0.1-1,0c-0.4-0.1-1.1-0.2-1.6-0.5c-0.6-0.3-1.1-0.6-1.5-1.1s-0.8-1-1.1-1.5
			c-0.6-1.2-0.6-2.5-0.6-3.8c0-0.7,0-1.3,0.1-2c0.1-0.7,0.2-1.3,0.3-2.2c0.2-0.9,0.4-1.9,0.7-3c0.3-1.1,0.6-2.1,1-3.3
			c0.4-1.2,0.9-2.5,1.6-3.8c0.6-1.3,1.4-2.5,2.2-3.7c0.8-1.2,1.8-2.3,2.4-3c0.6-0.7,0.9-1,1.2-1.3s0.6-0.6,0.8-0.8
			c0.4-0.4,0.6-0.6,0.8-0.9c0.5-0.6,0.7-1,0.4-1.6c-0.2-0.3-0.5-0.4-0.8-0.4c-0.1,0-0.2,0-0.5,0.1c-0.5,0.1-1.4,0.5-2.1,0.9
			c-0.9,0.5-1.6,1.1-2.4,1.7c-0.5,0.4-0.9,0.7-1.3,1.1c-0.8,0.7-1.4,1.3-2,2c-0.3,0.3-0.6,0.7-1,1.3c-0.4,0.6-1.1,1.6-1.6,2.5
			c-0.6,1-1.1,1.9-1.5,3c-0.5,1-0.9,2-1.2,3c-0.3,1-0.6,1.8-0.8,2.7c-0.2,0.9-0.5,1.8-0.6,2.5c-0.3,1.4-0.4,2.3-0.5,3.5
			c-0.2,2.2,0,4.3,0.8,6.5c0.2,0.5,0.4,1,0.7,1.5c0.3,0.5,0.6,0.9,1,1.3c0.8,0.8,1.7,1.3,2.5,1.7c0.4,0.2,0.9,0.4,1.3,0.5
			c1.3,0.4,2.4,0.7,3.6,0.4c1-0.2,1.9-0.6,2.8-0.8c0.3-0.1,0.6-0.1,0.9-0.2c0.3,0.4,0.7,0.8,1,1.1s0.7,0.8,1.2,1.2
			c0.5,0.4,1.1,1,1.8,1.4c0.7,0.4,1.4,0.8,2.2,1c0.8,0.2,1.6,0.4,2.7,0.4c1.1,0,2.5-0.1,3.8-0.4c1.3-0.3,2.6-0.8,3.9-1.4
			c1.2-0.6,2.4-1.4,3.1-2c0.8-0.6,1.2-1,1.6-1.5c0.4-0.4,0.8-0.9,1.2-1.3c0.4-0.5,0.8-0.9,1.1-1.3c0.6-0.7,0.8-1.2,1.1-1.7
			c0.2-0.3,0.3-0.6,0.4-0.9l0,0l1.2,0.4l-1.2,3.8l0,0c-0.2,0.6-0.2,1.4-0.1,2.1c0.1,0.3,0.2,0.7,0.4,0.9c0.2,0.3,0.3,0.5,0.6,0.7
			c0.5,0.4,1.1,0.6,1.7,0.5c0.3,0,0.6-0.1,0.8-0.2c0.2-0.1,0.3-0.2,0.5-0.3c0.6-0.5,0.7-1.1,1-1.6c0.4-1.2,0.9-2.4,1.4-3.5
			c0.1-0.2,0.1-0.3,0.1-0.5l0,0l4.9-0.1l0,0c0.1,0.6,0.1,1.2,0.1,1.5c0,0.3,0,0.4,0.1,0.5c0,0.1,0,0.2,0.1,0.3
			c0,0.1,0.1,0.2,0.1,0.3c0.1,0.2,0.2,0.5,0.4,0.7c0.1,0.3,0.3,0.5,0.4,0.8c0.3,0.5,0.5,0.6,0.8,0.8c0.6,0.3,1.2,0.5,1.9-0.4
			c0.2-0.3,0.3-0.5,0.4-0.8c0.1-0.3,0.2-0.8,0.2-1.2c0-0.2,0-0.4,0-0.8C96.5,197.6,96.5,197,96.5,196.3L96.5,196.3L96.5,196.3
			L96.5,196.3z M59.8,191.4c-0.2-0.6-0.3-1.2-0.4-1.9c-0.2-1.3-0.2-2.5,0-3.9c0.1-0.7,0.2-1.5,0.4-2.3c0.2-0.8,0.4-1.6,0.5-2.1
			c0.1-0.5,0.2-0.8,0.3-1c0.2-0.5,0.4-0.9,0.6-1.4c0.1-0.1,0.1-0.2,0.2-0.3c0.2-0.2,0.4-0.3,0.7-0.3l0,0l-0.1,0l0,0
			c0.3,0,0.6,0,0.8,0.3c0.2,0.3,0.4,0.6,0.5,1c0.2,0.9,0.2,1.7,0.1,2.6c0,0.4,0,0.7-0.1,1.2c-0.1,0.5-0.2,1.2-0.3,1.9
			c-0.1,0.7-0.3,1.4-0.5,2c-0.2,0.6-0.4,1.1-0.7,1.6c-0.3,0.5-0.6,0.9-1,1.4C60.7,190.8,60.3,191.1,59.8,191.4L59.8,191.4
			L59.8,191.4L59.8,191.4z M91.1,191c-0.5,0.4-1,0.3-1.4-0.2c0.4-0.8,0.8-1.5,1.1-2.3l0,0l0.5,2.2l0,0
			C91.2,190.8,91.1,190.9,91.1,191L91.1,191L91.1,191L91.1,191z"/>
		<path class="st1" d="M74.8,168.9c-0.3-0.6-0.6-1.2-0.9-1.8c-0.4,4.2-0.5,8.4-0.5,12.6l0,0h0.9l0,0
			C74.3,176.1,74.5,172.5,74.8,168.9L74.8,168.9L74.8,168.9L74.8,168.9z"/>
		<path class="st1" d="M168.1,173.7l-2.1-0.1l3,6.2l0,0C168.3,177.9,168,175.8,168.1,173.7L168.1,173.7L168.1,173.7L168.1,173.7z"/>
		<path class="st1" d="M172.1,186.8c-0.7-2.1-1.6-4.2-3.3-6.2c-0.7-0.9-1.4-1.8-2.1-2.6c-0.7-0.8-1.5-1.6-2.4-2.4
			c-0.8-0.8-1.7-1.5-2.6-2.1c-0.9-0.8-1.9-1.5-2.8-2.2c-1-0.7-2-1.4-3-2c-1-0.6-2.1-1.2-3.1-1.8c-2.6-1.3-5.3-2.4-8.1-3.3
			c-5.6-1.7-11.4-2.5-17.2-2.3c-2,0-4,0.3-6.1,1c-0.6,0.2-1.3,0.5-1.9,0.8c-0.6,0.3-1.2,0.6-1.8,1c-0.6,0.4-1.1,0.7-1.6,1.2
			c-0.6,0.5-0.8,1.1-0.5,1.7c0.1,0.4,0.5,0.7,0.9,0.8c0.2,0.1,0.5,0.2,0.9,0.2c0.9,0.1,1.9-0.2,2.9-0.8c0.2-0.2,0.6-0.5,0.5-0.8
			c0-0.1-0.2-0.4-0.4-0.4c-0.3-0.1-0.7-0.1-1,0.1c0.6-0.4,1.3-0.7,2-0.9c0.4-0.1,0.7-0.1,1.6-0.2c0.9-0.1,2.3-0.1,3.7-0.1
			c2.8,0.1,5.5,0.5,8.3,1.2c2.4,0.7,4.7,1.4,7,2.3c2.3,0.8,4.6,1.8,6.2,2.5c1.6,0.7,2.5,1.1,3.4,1.6s1.8,1,2.6,1.6
			c0.8,0.6,1.7,1.2,2.5,1.8c1,0.8,2,1.6,2.9,2.5c0.9,0.9,1.8,1.8,2.7,2.7c0.5,0.5,0.9,1.1,1.3,1.6c0.8,1.2,1.5,2.4,2,3.6
			c0.3,0.8,0.5,1.7,0.6,2.5c0,0.9-0.1,1.7-0.3,2.6c-0.3,0.8-0.7,1.6-1.2,2.3c-0.5,0.7-1.2,1.3-2.3,1.9c-1.1,0.6-2.5,1.3-4,1.9
			c-3,1.1-6.2,1.6-9.4,1.5c-2.1-0.1-4.2-0.3-6.3-0.6l0,0l-0.1-11.3l0,0c4,0.3,8.1,1.2,12.1,2.5c-0.2,0.4-0.4,0.7-0.9,1.1
			c-0.3,0.2-0.6,0.5-0.8,0.7c-0.2,0.2-0.2,0.5-0.1,0.8c0,0.1,0.1,0.2,0.2,0.3c0.1,0.1,0.3,0.2,0.4,0.3c0.5,0.3,1.1,0.4,1.8,0.4
			c1-0.1,2-0.6,3-1.6c0.3-0.3,0.5-0.6,0.7-1c0.6-1.3,0.6-2.9-0.5-4.4c-0.2-0.3-0.4-0.5-0.7-0.8c-0.3-0.2-0.5-0.4-0.8-0.6
			c-1.6-0.9-3.3-1.6-5-2c-0.9-0.2-1.7-0.4-2.7-0.5c-2-0.3-4.3-0.5-6.4-0.5c0-1.2-0.2-2.5-0.4-3.7c-0.1-0.6-0.2-1.2-0.3-1.6
			c-0.1-0.4-0.2-0.7-0.3-0.9s-0.2-0.5-0.3-0.7c-0.1-0.3-0.2-0.5-0.4-0.8c-0.2-0.3-0.6-0.7-1-0.9c-0.4-0.2-0.8-0.2-1.3,0.2
			c-0.1,0.1-0.1,0.2-0.2,0.3c-0.4,1-0.7,2-0.9,3c-0.1,0.5-0.2,1-0.3,1.7c-0.2,1.3-0.3,2.8-0.6,4.2c-1.9,0.2-3.8,0.6-5.8,1.1
			c-0.9,0.3-1.8,0.6-2.6,1c-0.4,0.2-0.9,0.4-1.2,0.6c-0.7,0.4-1.2,0.7-1.8,1.2c-0.3,0.2-0.5,0.4-0.8,0.7c-0.7,0.8-1,1.7-0.9,2.7
			c0.1,0.8,0.5,1.4,1,2.2c0.1,0.2,0.3,0.4,0.6,0.7c0.3,0.3,0.7,0.8,1.2,1.2c0.8,0.8,1.6,1.6,2.4,2.2c0.4,0.3,0.7,0.6,1.1,0.8
			c0.4,0.3,0.8,0.5,1.4,0.9c0.6,0.4,1.5,0.9,2.4,1.5c0.9,0.5,1.8,1.1,2.7,1.6c0,0.2,0.1,0.4,0.1,0.6c0.1,0.2,0.1,0.5,0.2,0.8
			c0.1,0.3,0.2,0.8,0.3,1.2c0.1,0.3,0.2,0.5,0.3,0.8c0.2,0.2,0.3,0.4,0.6,0.6c0.7,0.6,1.6,0.7,2.4,0.4c0.3-0.1,0.6-0.3,0.9-0.5
			c0.3-0.2,0.5-0.5,0.7-0.8c0.2-0.3,0.3-0.6,0.4-1c1.1,0.2,2.2,0.3,3.3,0.4c1.1,0.1,2.2,0.2,3.2,0.2c1.8,0.1,3.2,0,4.8-0.1
			c2.1-0.2,4.5-0.7,6.6-1.5c1.4-0.5,2.8-1.2,4-2c1.3-0.8,2.5-1.7,3.6-2.7c0.4-0.4,0.8-0.8,1.1-1.2c0.7-0.9,1.4-1.8,1.9-2.7
			C172.5,191.9,172.8,189.3,172.1,186.8L172.1,186.8L172.1,186.8L172.1,186.8z M132.4,195.7c-0.7-0.3-1.3-0.7-1.9-1.1
			s-1-0.7-1.5-1.1c-0.5-0.4-0.9-0.8-1.4-1.2c-0.4-0.4-0.8-0.9-1.1-1.1c-0.2-0.3-0.3-0.4-0.3-0.4c-0.1-0.3,0-0.6,0.2-0.8
			c0.1-0.1,0.2-0.1,0.5-0.3s1-0.4,1.7-0.6c0.7-0.2,1.4-0.4,1.9-0.5c0.6-0.1,1.1-0.2,1.4-0.3c0.3-0.1,0.5-0.1,1-0.1
			c0.4,0,1-0.1,1.6-0.1c0.6,0,1.2-0.1,1.8-0.1l0,0l0,9l0,0C135.2,196.9,133.7,196.4,132.4,195.7L132.4,195.7L132.4,195.7
			L132.4,195.7z"/>
		<path class="st1" d="M189.4,169.6c-0.1-0.4-0.2-0.7-0.3-1c-0.1-0.3-0.3-0.5-0.6-0.7c-0.8-0.7-1.7-0.9-2.6-0.7
			c-0.1-0.2-0.2-0.4-0.4-0.6c-0.3-0.4-0.8-0.7-1.2-0.8c-0.8-0.2-1.6-0.3-2.4-0.3c-0.4,0-0.8,0-1.6,0.1s-1.8,0.3-2.9,0.6
			c-1.1,0.3-2.1,0.7-3,1.2c-1,0.5-1.9,1.1-2.8,1.8c-0.4,0.3-0.7,0.6-1,0.9c-1.3,1.5-2.1,3.1-2.1,4.6c0,0.4,0,0.8,0.1,1.2
			c0.1,0.6,0.3,1.1,0.5,1.6c0.2,0.5,0.6,1.1,0.9,1.8c0.2,0.4,0.4,0.7,0.5,1s0.2,0.4,0.3,0.5s0.2,0.2,0.3,0.3
			c0.3,0.2,0.7,0.2,1.2,0.1c0.3,0,0.5-0.1,0.8-0.2c0.2-0.1,0.5-0.3,0.7-0.5c0.2-0.2,0.3-0.5,0.5-0.6c0.2-0.1,0.4,0.1,0.6,0.2
			c0.2,0.1,0.4,0.2,0.7,0.2c0.2,0,0.5,0.1,0.8,0.1c0.4,0,0.9,0,1.3-0.1c0.4,0,0.8-0.1,1.1-0.1c0.3,0,0.4-0.1,0.7-0.1
			c0.6-0.1,1.8-0.4,2.7-0.7c0.9-0.4,2-1,3-1.8c1.1-0.9,2.1-2,2.8-3c0.8-1.1,1.2-2.2,1.3-3.3C189.5,170.7,189.5,170.1,189.4,169.6
			L189.4,169.6L189.4,169.6L189.4,169.6z M174.6,172.5c-0.8,0.7-1.5,1.5-2.2,2.3c0.2-0.6,0.4-1.2,0.7-1.8c0.3-0.6,0.7-1.1,1.2-1.6
			c0.5-0.5,1-0.9,1.5-1.2c1.4-0.8,2.8-1.2,4.1-1.4c-1,0.5-1.9,1-2.8,1.6C176.3,171.1,175.4,171.8,174.6,172.5L174.6,172.5
			L174.6,172.5L174.6,172.5z M185.2,172.1c-0.1,0.5-0.3,1-0.7,1.4c-0.2,0.2-0.4,0.4-0.6,0.5c-0.5,0.4-1.1,0.7-1.7,1
			c-1.1,0.6-2.3,1.2-3.5,1.5c-1.2,0.2-2.4,0.2-3.6-0.1c0.6-0.8,1.2-1.6,1.9-2.3c0.7-0.7,1.5-1.3,2.4-1.8c0.9-0.5,1.8-0.9,2.7-1.2
			c0.7-0.2,1.4-0.3,2.1-0.2c0.2,0,0.4,0.1,0.5,0.3C185.2,171.6,185.3,171.8,185.2,172.1L185.2,172.1L185.2,172.1L185.2,172.1z"/>
		<path class="st1" d="M254.5,189.7c0-0.7-0.1-1.4-0.3-2c-0.2-0.7-0.5-1.3-0.8-1.9c-0.4-0.6-0.8-1.1-1.3-1.6c-1-0.8-2.2-1.1-3.3-0.7
			c-0.4,0.1-0.7,0.3-1.6,1c-0.9,0.7-2.4,1.9-3.8,3.1c-1.4,1.2-2.8,2.5-4.1,3.9c0.3-0.9,0.6-1.7,1-2.6c0.4-0.8,0.8-1.7,1.1-2.3
			c0.3-0.6,0.5-1,0.7-1.4c0.2-0.4,0.4-0.8,0.5-1.1c0.2-0.6,0.2-0.8,0.2-1.2c0-0.2,0-0.4-0.1-0.5c0-0.1-0.1-0.2-0.1-0.3
			c-0.4-0.5-1-0.3-1.6,0c-0.1,0.1-0.2,0.2-0.5,0.4s-0.6,0.6-1,1c-0.4,0.4-0.7,0.8-1.1,1.2c-0.5,0.6-1,1.3-1.5,2
			c-0.4,0.7-0.9,1.4-1.2,2.1c-0.4,0.7-0.7,1.5-0.9,2c-0.2,0.5-0.3,0.8-0.3,1.1c-0.1,0.3-0.1,0.6-0.1,0.9c0,0.3,0,0.6,0,1
			c0,0.8,0.2,1.8,0.4,2.7c0.1,0.5,0.3,0.9,0.4,1.4c-0.6,1.4-1.2,2.8-1.7,4.2c-0.5,1.4-0.9,2.9-1.3,4.4c-0.3,1.5-0.6,3-0.7,3.9
			c-0.1,0.9-0.1,1.2-0.1,1.5c0.1,1.4,0.7,2.7,2.1,4.1c0.9,0.8,2,0.8,3.1-0.1c0.6-2.3,1.2-4.6,1.7-6.9l0,0l0.6-1.8l0,0
			c0.2-0.6,0.5-1.2,0.8-2.1c0.4-0.9,0.8-2.1,1.3-3.3c0.6-0.1,1.1-0.2,1.7-0.3c0.6-0.1,1.1-0.3,1.6-0.4c0.9-0.2,1.5-0.5,2.3-0.9
			c0.3-0.2,0.7-0.4,1.1-0.7c0.4-0.3,1-0.7,1.5-1.1c0.5-0.4,1.1-0.9,1.5-1.3c0.9-0.8,1.5-1.6,2.1-2.4
			C254.1,193.1,254.6,191.5,254.5,189.7L254.5,189.7L254.5,189.7L254.5,189.7z M249.9,192.3c-0.3,0.5-0.7,0.9-1.1,1.3
			c-0.8,0.6-1.6,1.2-2.4,1.7c-0.7,0.4-1.3,0.4-1.9,0.1c0.4-0.9,0.8-1.7,1.3-2.5c0.5-0.8,1-1.6,1.6-2.3c0.6-0.7,1.2-1.4,1.9-2.1
			c0.3-0.3,0.6-0.3,0.9-0.2c0.3,0.1,0.5,0.5,0.5,0.7C250.8,190.1,250.5,191.3,249.9,192.3L249.9,192.3L249.9,192.3L249.9,192.3z"/>
	</g>
	<g id="walt-disney">
		<path class="st1" d="M174.5,459.9c0,0.3,0.1,0.6,0.2,0.8c0.1,0.3,0.3,0.5,0.4,0.7c0.7,0.7,1.5,0.9,2.3,0.8
			c0.4-0.1,0.9-0.3,1.4-0.6c0.5-0.4,0.7-0.9,0.8-1.3c0.1-1.3,0.1-2.6,0.1-3.9c0-1.3,0-2.6-0.1-3.7c0-1.1-0.1-2-0.1-2.8
			c0-0.9-0.1-1.8-0.1-2.3c0-0.6-0.1-0.8-0.1-1.1c0-0.2-0.1-0.5-0.1-0.7c-0.1-0.2-0.1-0.5-0.2-0.7c-0.2-0.5-0.4-0.9-0.9-1.4
			c-0.4-0.4-1-0.6-1.6-0.4c-0.2,0.1-0.3,0.2-0.5,0.3c-0.3,0.3-0.4,0.7-0.6,1.1c-0.1,0.2-0.1,0.4-0.2,0.6s-0.1,0.4-0.1,0.8
			c0,0.3-0.1,0.8-0.1,1.3c0,0.5-0.1,0.9-0.1,1.5c-0.1,1.1-0.1,2.4-0.3,3.7C174.3,454.9,174.3,457.4,174.5,459.9L174.5,459.9z"/>
		<path class="st1" d="M213.9,448.8c-0.5-1.9-1-3.7-1.5-5.6l0,0L213.9,448.8L213.9,448.8z"/>
		<path class="st1" d="M213.9,448.8l0.5,2l0,0c0.2,0.9,0.4,1.9,0.3,2c-0.1,0.2-0.6-0.5-1-1.1c-0.3-0.4-0.6-0.8-1.3-1.7
			c-0.7-0.9-1.8-2.3-2.4-3.1c-0.6-0.8-0.9-1.1-1.1-1.3c-0.5-0.5-0.9-1-1.4-1.4c-0.6-0.4-1.2-0.5-1.9-0.2c-0.2,0.1-0.4,0.2-0.6,0.4
			c-0.2,0.2-0.3,0.4-0.4,0.6c-0.9,1.9-1.4,3.8-1.7,5.7l0,0l-0.6,3.6l0,0c-0.4,1.9-0.4,3.8,0.3,5.7c0.1,0.2,0.2,0.4,0.4,0.6
			c0.6,0.5,1.3,0.7,2.1,0.4c0.2-0.1,0.5-0.2,0.6-0.3c0.6-0.5,0.8-1.1,0.9-1.7c0.3-2.6,0.6-5.2,1-7.8c1.1,2.4,2.5,4.8,4.4,7.1
			c0.7,0.8,1.4,1.5,2,1.7c1,0.4,2.1,0.2,3.2-0.5c0.2-0.2,0.5-0.4,0.7-0.6c0.4-0.4,0.7-0.9,1-1.4c0.9-1.6,1.1-3.3,1-5.1
			c0-1.1-0.2-2.3-0.5-3.4c-0.2-1-0.6-2-1-3c-0.4-1-0.9-1.9-1.4-2.8c-0.6-0.9-1.2-1.7-1.9-2.5c-0.6-0.7-1.2-1-1.9-0.9
			c-0.2,0-0.3,0.1-0.5,0.2c-0.6,0.3-0.7,0.8-0.6,1.3c0.1,0.6,0.2,1.2,0.3,1.8l0,0L213.9,448.8L213.9,448.8z"/>
		<path class="st1" d="M221.1,446.6c0.7,0.8,1.4,1.1,2.2,1.2l0,0l-1.1,2.4l0,0c-0.2,0-0.4,0.1-0.5,0.2c-0.7,0.6-0.9,1.2-0.6,2
			c0.1,0.2,0.1,0.3,0.3,0.5c-0.7,1.3-1.4,2.5-1.6,3.8c-0.2,1,0.2,2.1,0.7,3.1c0.2,0.4,0.4,0.8,0.6,1.2c0.2,0.3,0.4,0.6,0.7,0.8
			c0.3,0.2,0.6,0.4,0.9,0.6c1.4,0.6,3,0.5,4.6-0.1c1.2-0.4,2.3-0.9,3.4-1.5c1.1-0.5,2.2-1.1,2.8-1.5c0.6-0.4,0.7-0.5,0.9-0.6
			c0.6-0.7,0.5-1.5,0.1-2.3c-0.1-0.2-0.3-0.4-0.5-0.5c-0.9-0.8-2-0.6-3-0.4c-1.1,0.2-2.1,0.5-3.2,0.8c-1.1,0.4-2.2,0.8-2.5,0.4
			c-0.2-0.4,0.5-1.7,1.1-3c0.4,0.1,0.7,0.1,1.1,0.1c1.2,0,2.4,0,3.7,0c0,0,0,0,0.2-0.1c0.4-0.1,1.1-0.3,1.7-0.5
			c0.3-0.1,0.7-0.4,0.9-0.7c0.2-0.4,0.2-0.9,0.1-1.3c-0.1-0.2-0.2-0.4-0.3-0.6c-0.4-0.6-1-0.7-1.5-0.8c-1.3-0.1-2.6-0.1-3.9-0.2l0,0
			l0.1-1.3l0,0c1.1,0.1,2.1,0,3.2-0.1c1.5-0.2,2.9-0.5,4.4-0.7c0.3-0.1,0.6-0.2,0.9-0.5c0.6-0.5,0.7-1,0.4-1.6
			c-0.3-0.5-0.6-0.9-0.9-1.3c-0.4-0.4-0.8-0.7-1.2-1c-0.9-0.6-2-0.8-3.1-0.7c-2.9,0.1-5.6,0.2-8.5,1c-0.7,0.2-1.4,0.5-2.1,0.7
			c-0.3,0.2-0.5,0.4-0.6,0.6C220.5,445.2,220.5,445.9,221.1,446.6L221.1,446.6z"/>
		<path class="st1" d="M187.2,448.2c4.3-0.5,8.6-1,13-1.5c0.4-0.1,1-0.2,1.5-0.7c0.6-0.6,0.7-1,0.5-1.6c-0.1-0.2-0.3-0.5-0.7-0.9
			c-0.2-0.2-0.4-0.3-0.6-0.4c-0.2-0.1-0.4-0.2-0.8-0.3c-0.7-0.2-1.5-0.3-2.3-0.4c-0.4,0-0.8-0.1-1.6-0.1c-0.8,0-1.9,0-3.1,0.1
			c-2.3,0.2-4.5,0.7-6.8,1.4c-0.7,0.3-1.5,0.6-2.2,1.1c-0.3,0.2-0.7,0.5-0.9,0.7c-0.9,0.8-1.3,1.5-1.5,2.4c-0.1,0.4-0.1,0.8,0,1.2
			s0.2,0.8,0.5,1.2c0.2,0.4,0.5,0.7,0.9,0.9c0.7,0.5,1.5,0.6,2.2,0.8c1.5,0.3,3.1,0,4.6,0c1.4,0,2.8,0,4.2,0.3
			c0.6,0.1,1.3,0.3,1.9,0.5c0.6,0.2,1.2,0.5,1.7,0.8c0.4,0.3,0.5,0.6,0.3,1c-0.1,0.3-0.8,0.8-1.3,1.1c-0.2,0.1-0.4,0.2-0.6,0.3
			c-3.3,1.4-6.7,1.5-10.2,0.4c-0.1-0.1-0.2-0.1-0.3-0.3c-0.1-0.2-0.1-0.5,0.2-0.8c0.3-0.2,0.7-0.2,1.1-0.3c0.7,0,1.6,0.1,2.4,0.5
			c1.3,0.6,2.9,0.8,4.3,0.6c0.7-0.1,1.4-0.3,2.1-0.6c0.1-0.1,0.3-0.2,0.4-0.4c0.1-0.2,0.1-0.4,0.1-0.6c-0.1-0.3-0.3-0.7-0.8-1.1
			c-0.5-0.4-1.2-0.7-1.9-0.9c-0.2-0.1-0.5-0.1-1-0.2s-1.2-0.1-1.9-0.1c-0.7,0-1.4,0-2.1,0c-0.7,0-1.4,0.1-1.9,0.2
			c-0.5,0.1-0.8,0.1-1.1,0.2c-0.3,0.1-0.5,0.2-0.8,0.3s-0.5,0.3-0.7,0.4c-1,0.7-1.4,1.5-1.4,2.3c0,0.2,0,0.5,0.1,0.7
			c0.1,0.2,0.1,0.5,0.3,0.8c0.2,0.3,0.5,0.8,0.9,1.2c0.4,0.4,0.8,0.8,1.2,1.1c0.4,0.3,0.9,0.6,1.6,0.9c0.7,0.3,1.6,0.6,2.6,0.8
			c0.9,0.2,1.9,0.3,2.9,0.3c1,0,1.9,0,2.6-0.1s1.1-0.2,1.5-0.3c0.4-0.1,0.8-0.2,1.2-0.4c0.4-0.2,0.8-0.3,1.1-0.5
			c0.3-0.2,0.6-0.3,0.8-0.5c0.3-0.2,0.5-0.4,0.7-0.6c0.7-0.7,1.1-1.3,1.4-1.9c0.1-0.2,0.2-0.5,0.2-0.9c0.1-0.8,0.1-2.1-0.4-3.2
			c-0.2-0.5-0.5-1-0.8-1.5c-0.3-0.4-0.7-0.8-1.1-1.1c-0.9-0.7-1.9-1-2.9-1.1c-2.2-0.2-4.5-0.4-6.8-0.8
			C189,448.5,188.1,448.3,187.2,448.2L187.2,448.2z"/>
		<path class="st1" d="M103.5,452.3c0.2-1.1,0.4-2.4,0.7-3.7c0.2-0.7,0.4-1.3,0.5-1.9c0.2-0.6,0.3-1.1,0.5-1.6
			c0.1-0.5,0.3-1,0.4-1.4c0.1-0.7,0.1-0.8,0.1-1.2c0-0.3-0.1-0.7-0.3-1c-0.5-0.7-1.1-0.8-1.8-0.7c-0.5,0.1-0.9,0.5-1.2,0.9
			c-0.1,0.2-0.3,0.3-0.4,0.5c-0.1,0.2-0.2,0.4-0.4,0.8c-0.2,0.4-0.5,1.1-0.8,1.7c-0.8,1.9-1.4,4-1.8,5.9c-0.1,0.6-0.2,1.3-0.3,1.9
			c-0.1,1.2-0.1,2.4-0.1,3.6c0,0.5,0,1.1,0.1,1.6c0,0.5,0.1,0.9,0.3,1.3c0.2,0.4,0.4,0.8,0.6,1.1c0.5,0.6,1.1,1,1.5,1.3
			c0.8,0.4,1.5,0.4,2.4,0.3c1.1-0.1,2.2-0.7,3.3-1.5c0.3-0.2,0.5-0.4,0.9-0.7c0.8-0.6,1.8-1.5,2.8-2.4c0,0.9,0,1.7,0,2.6
			c0,0.9,0.1,1.7,0.2,2.3c0.1,0.6,0.2,0.9,0.2,1.2c0.2,0.7,0.4,1.3,0.8,1.9c0.2,0.3,0.5,0.7,0.8,1c0.3,0.3,0.7,0.5,1.1,0.7
			c0.4,0.2,0.9,0.2,1.2,0.3s0.5,0,0.6-0.1c0.3-0.1,0.5-0.3,0.7-0.6c0.2-0.3,0.3-0.8,0.3-1.2c0-0.2,0-0.4,0-0.8c0-0.4,0-1,0-1.5
			c0-0.6,0-1.1,0-2c0-0.9,0-2.1,0.1-3.3c0.1-2.3,0.5-4.7,1.1-7c1.2-0.3,2.5-0.6,3.1-0.8c0.7-0.2,0.8-0.2,0.9-0.3s0.2-0.1,0.3-0.1
			c0.2-0.1,0.5-0.4,0.9-0.7c1.4-1.4,1.7-3,1-4.6c-0.2-0.5-0.4-0.9-0.8-1.4c-0.2-0.2-0.3-0.4-0.5-0.6c-0.2-0.2-0.4-0.3-0.6-0.4
			s-0.5-0.2-0.8-0.2c-0.7-0.1-1.7-0.1-2.6,0.2c-0.4,0.2-0.8,0.4-1.5,0.9c-0.6,0.5-1.5,1.2-2.3,1.9c-1-0.1-1.9-0.3-2.9-0.6
			c-0.5-0.1-0.9-0.3-1.3-0.5c-0.3-0.2-0.6-0.3-0.8-0.5c-0.2-0.2-0.4-0.4-0.5-0.6c-0.1-0.2-0.2-0.5-0.3-0.6c-0.2-0.3-0.3-0.3-0.5-0.4
			c-0.2-0.1-0.4-0.1-0.6,0c-0.3,0.1-0.6,0.2-0.9,0.7c-0.2,0.3-0.3,0.7-0.4,1c-0.1,0.3-0.1,0.5,0,0.8c0,0.3,0.1,0.8,0.2,1.2
			c0.3,0.8,0.7,1.5,1.7,2.1c0.5,0.3,1.1,0.7,1.7,1.1c0.6,0.4,1.2,0.7,1.9,1c-0.4,1.6-0.8,3.1-1,4.7l0,0l-1.8-0.2l-4.2,1.4l0,0
			c-0.5,0.2-1,0.2-1.6,0c-0.4-0.3-0.4-0.6-0.2-1l0,0l0.1-0.2l0,0C103.4,453.4,103.5,452.9,103.5,452.3L103.5,452.3z"/>
		<path class="st1" d="M64.3,438.8C64.3,438.8,64.3,438.8,64.3,438.8L64.3,438.8l0.7,0.3l0,0C64.8,438.9,64.5,438.8,64.3,438.8
			L64.3,438.8L64.3,438.8L64.3,438.8z"/>
		<path class="st1" d="M98.5,456.7c0-0.7,0-1.3,0-1.8c0-0.4,0-0.6-0.1-0.8c0-0.2-0.1-0.4-0.3-1.9c-0.3-1.5-0.8-4.4-1.2-6.1
			c-0.3-1.7-0.5-2.2-0.6-2.7c-0.3-1-0.7-1.9-1.1-2.9c-0.1-0.1-0.2-0.3-0.3-0.4c-0.1-0.1-0.3-0.2-0.5-0.2c-0.3-0.1-0.8,0-1.3,0.2
			c-0.3,0.1-0.5,0.3-0.7,0.4c-0.5,0.4-0.8,1.1-1.2,1.7c-0.3,0.3-0.5,0.6-0.8,1c-0.3,0.4-0.6,0.8-1,1.2c-0.3,0.4-0.6,0.8-1.1,1.5
			c-0.4,0.7-1,1.6-1.6,2.6c-0.6,1-1.1,2-1.6,3l0,0l-1.3-0.1l0,0c0.7-2.2,1.2-4.4,1.5-6.7c0.2-2.3,0.3-4.8-0.1-7.3
			c-0.2-1.3-0.4-2.5-0.8-3.8c-0.4-1.2-0.8-2.4-1.2-3.3s-0.7-1.4-0.9-1.9c-0.3-0.5-0.6-1-1-1.5c-0.3-0.5-0.7-0.9-1.2-1.5
			c-0.5-0.5-1-1.1-1.6-1.8c-0.6-0.6-1.1-1.2-1.6-1.7c-0.4-0.4-0.8-0.7-1.1-0.9c-0.3-0.2-0.7-0.4-1.1-0.5c-0.4-0.1-0.8-0.2-1-0.2
			c-0.5-0.1-0.6,0-0.8,0.2c-0.4,0.3-0.5,0.6-0.4,0.9c0,0.1,0.1,0.1,0.3,0.4c0.2,0.3,0.7,0.8,1.1,1.3c0.8,1,1.6,2,2.1,2.9
			c0.2,0.4,0.5,0.9,0.7,1.4c0.3,0.6,0.6,1.3,0.9,2c0.6,1.4,1.2,2.7,1.5,4c0.2,0.6,0.3,1.2,0.4,1.9c0.1,0.6,0.2,1.3,0.2,2
			c0.1,2.2,0,4.6-0.4,6.8c-0.3,2.2-1,4.4-2.1,6.7c-0.5,1-1.2,2-1.9,2.9c-0.7,0.9-1.5,1.7-2.4,2.5s-1.9,1.4-2.9,2
			c-0.7,0.4-1.5,0.7-2.3,0.8c-0.4,0.1-0.8,0.1-1.2,0.1c-0.6,0-1.1-0.1-1.7-0.3c-0.3-0.1-0.5-0.2-0.7-0.4c-0.2-0.2-0.5-0.4-0.6-0.6
			c-0.4-0.5-0.6-1-0.6-1.6c0.6-0.5,1.2-1,1.7-1.5c0.6-0.5,1.1-1.1,1.6-1.7c1-1.1,1.8-2.2,2.4-3.2c0.3-0.5,0.6-1,0.9-1.5
			c0.3-0.5,0.5-1,0.8-1.8c0.3-0.7,0.5-1.7,0.6-2.7c0.1-1,0.1-2-0.1-3c-0.2-1-0.5-1.9-0.7-2.6c-0.3-0.6-0.5-1-0.7-1.3
			c-0.3-0.3-0.5-0.6-0.9-0.8c-1.1-0.7-2.3-0.8-3.5-0.7c-0.4,0-0.8,0.1-1.5,0.4c-0.7,0.3-1.7,0.7-2.6,1.3c-0.9,0.6-1.7,1.3-2.4,2.1
			c-0.7,0.8-1.2,1.8-1.5,2.5s-0.5,1.3-0.7,1.9c-0.5,1.6-0.9,3.4-0.9,5.1c0,0.5,0,1.1,0.1,1.6c0.1,0.5,0.2,1.1,0.3,2.1s0.4,2.5,0.6,4
			c-0.4,0.4-0.9,0.7-1.4,0.8c-0.3,0.1-0.5,0.1-1,0c-0.4-0.1-1.1-0.2-1.6-0.5c-0.6-0.3-1.1-0.6-1.5-1.1c-0.4-0.4-0.8-1-1.1-1.5
			c-0.6-1.2-0.6-2.5-0.6-3.8c0-0.7,0-1.3,0.1-2c0.1-0.7,0.2-1.3,0.3-2.2c0.2-0.9,0.4-1.9,0.7-3c0.3-1.1,0.6-2.1,1-3.3
			c0.4-1.2,0.9-2.5,1.6-3.8s1.4-2.5,2.2-3.7c0.8-1.2,1.8-2.3,2.4-3c0.6-0.7,0.9-1,1.2-1.3c0.3-0.3,0.6-0.6,0.8-0.8
			c0.4-0.4,0.6-0.6,0.8-0.9c0.5-0.6,0.7-1,0.4-1.6c-0.2-0.3-0.5-0.4-0.8-0.4c-0.1,0-0.2,0-0.5,0.1c-0.5,0.1-1.4,0.5-2.1,0.9
			c-0.9,0.5-1.6,1.1-2.4,1.7c-0.5,0.4-0.9,0.7-1.3,1.1c-0.8,0.7-1.4,1.3-2,2c-0.3,0.3-0.6,0.7-1,1.3c-0.4,0.6-1.1,1.6-1.6,2.5
			c-0.6,1-1.1,2-1.5,3c-0.5,1-0.9,2-1.2,3c-0.3,1-0.6,1.8-0.8,2.7c-0.2,0.9-0.5,1.8-0.6,2.5c-0.3,1.4-0.4,2.3-0.5,3.5
			c-0.2,2.2,0,4.3,0.8,6.5c0.2,0.5,0.4,1,0.7,1.5c0.3,0.5,0.6,0.9,1,1.3c0.8,0.8,1.7,1.3,2.5,1.7c0.4,0.2,0.9,0.4,1.3,0.5
			c1.3,0.4,2.4,0.7,3.6,0.4c1-0.2,1.9-0.6,2.8-0.8c0.3-0.1,0.6-0.1,0.9-0.2c0.3,0.4,0.7,0.8,1,1.1c0.3,0.4,0.7,0.8,1.2,1.2
			c0.5,0.5,1.1,1,1.8,1.4c0.7,0.4,1.4,0.8,2.2,1c0.8,0.2,1.6,0.4,2.7,0.4c1.1,0,2.5-0.1,3.8-0.4c1.3-0.3,2.6-0.8,3.9-1.4
			c1.2-0.6,2.4-1.4,3.1-2c0.8-0.6,1.2-1,1.6-1.5c0.4-0.4,0.8-0.9,1.2-1.3s0.8-0.9,1.1-1.3c0.6-0.7,0.8-1.2,1.1-1.7
			c0.2-0.3,0.3-0.6,0.4-0.9l0,0l1.2,0.4l-1.2,3.8l0,0c-0.2,0.6-0.2,1.4-0.1,2.1c0.1,0.3,0.2,0.7,0.4,0.9c0.2,0.3,0.3,0.5,0.6,0.7
			c0.5,0.4,1.1,0.6,1.7,0.5c0.3,0,0.6-0.1,0.8-0.2c0.2-0.1,0.3-0.2,0.5-0.3c0.6-0.5,0.7-1.1,1-1.6c0.4-1.2,0.9-2.4,1.4-3.5
			c0.1-0.2,0.1-0.3,0.1-0.5l0,0l4.9-0.1l0,0c0.1,0.6,0.1,1.2,0.1,1.5c0,0.3,0,0.4,0.1,0.5c0,0.1,0,0.2,0.1,0.3
			c0,0.1,0.1,0.2,0.1,0.3c0.1,0.2,0.2,0.5,0.4,0.7c0.1,0.3,0.3,0.5,0.4,0.8c0.3,0.5,0.5,0.6,0.8,0.8c0.6,0.3,1.2,0.5,1.9-0.4
			c0.2-0.3,0.3-0.5,0.4-0.8c0.1-0.3,0.2-0.8,0.2-1.2c0-0.2,0-0.4,0-0.8C98.5,458.1,98.5,457.4,98.5,456.7L98.5,456.7L98.5,456.7
			L98.5,456.7z M61.8,451.9c-0.2-0.6-0.3-1.2-0.4-1.9c-0.2-1.3-0.2-2.5,0-3.9c0.1-0.7,0.2-1.5,0.4-2.3c0.2-0.8,0.4-1.6,0.5-2.1
			c0.1-0.5,0.2-0.8,0.3-1c0.2-0.5,0.4-0.9,0.6-1.4c0.1-0.1,0.1-0.2,0.2-0.3c0.2-0.2,0.4-0.3,0.7-0.3l0,0l-0.1,0l0,0
			c0.3,0,0.6,0,0.8,0.3c0.2,0.3,0.4,0.6,0.5,1c0.2,0.9,0.2,1.7,0.1,2.6c0,0.4-0.1,0.7-0.1,1.2c-0.1,0.5-0.2,1.2-0.3,1.9
			c-0.1,0.7-0.3,1.4-0.5,2c-0.2,0.6-0.4,1.1-0.7,1.6c-0.3,0.5-0.6,0.9-1,1.4C62.7,451.2,62.3,451.6,61.8,451.9L61.8,451.9
			L61.8,451.9L61.8,451.9z M93.1,451.4c-0.5,0.4-1,0.3-1.4-0.2c0.4-0.8,0.8-1.5,1.1-2.3l0,0l0.5,2.2l0,0
			C93.2,451.3,93.1,451.4,93.1,451.4L93.1,451.4L93.1,451.4L93.1,451.4z"/>
		<path class="st1" d="M174.1,447.2c-0.7-2.1-1.6-4.2-3.3-6.2c-0.7-0.9-1.4-1.8-2.1-2.6c-0.7-0.8-1.5-1.6-2.4-2.4
			c-0.8-0.8-1.7-1.5-2.6-2.1c-0.9-0.8-1.9-1.5-2.8-2.2c-1-0.7-2-1.4-3-2c-1-0.6-2.1-1.2-3.1-1.8c-2.6-1.3-5.3-2.4-8.1-3.3
			c-5.6-1.7-11.4-2.5-17.2-2.3c-2,0-4,0.3-6.1,1c-0.6,0.2-1.3,0.5-1.9,0.8c-0.6,0.3-1.2,0.6-1.8,1c-0.6,0.4-1.1,0.7-1.6,1.2
			c-0.6,0.5-0.8,1.1-0.5,1.7c0.1,0.4,0.5,0.7,0.9,0.8c0.2,0.1,0.5,0.2,0.9,0.2c0.9,0.1,1.9-0.2,2.9-0.8c0.2-0.2,0.6-0.5,0.5-0.8
			c0-0.1-0.2-0.4-0.4-0.4c-0.3-0.1-0.7-0.1-1,0.1c0.6-0.4,1.3-0.7,2-0.9c0.4-0.1,0.7-0.1,1.6-0.2c0.9-0.1,2.3-0.1,3.7-0.1
			c2.8,0.1,5.5,0.5,8.3,1.2c2.4,0.7,4.7,1.4,7,2.3s4.6,1.8,6.2,2.5c1.6,0.7,2.5,1.1,3.4,1.6c0.9,0.5,1.8,1,2.6,1.6
			c0.8,0.6,1.7,1.2,2.5,1.8c1,0.8,2,1.6,2.9,2.5c0.9,0.9,1.8,1.8,2.7,2.7c0.5,0.5,0.9,1.1,1.3,1.6c0.8,1.2,1.5,2.4,2,3.6
			c0.3,0.8,0.5,1.7,0.6,2.5c0,0.9-0.1,1.7-0.3,2.6c-0.3,0.8-0.7,1.6-1.2,2.3c-0.5,0.7-1.2,1.3-2.3,1.9c-1.1,0.6-2.5,1.3-4,1.9
			c-3,1.1-6.2,1.6-9.4,1.5c-2.1-0.1-4.2-0.3-6.3-0.6l0,0l-0.1-11.3l0,0c4,0.3,8.1,1.2,12.1,2.5c-0.2,0.4-0.4,0.7-0.9,1.1
			c-0.3,0.2-0.6,0.5-0.8,0.7c-0.2,0.2-0.2,0.5-0.1,0.8c0,0.1,0.1,0.2,0.2,0.3c0.1,0.1,0.3,0.2,0.4,0.3c0.5,0.3,1.1,0.4,1.8,0.4
			c1-0.1,2-0.6,3-1.6c0.3-0.3,0.5-0.6,0.7-1c0.6-1.3,0.6-2.9-0.5-4.4c-0.2-0.3-0.4-0.5-0.7-0.8c-0.3-0.2-0.5-0.4-0.8-0.6
			c-1.6-0.9-3.3-1.6-5-2c-0.9-0.2-1.7-0.4-2.7-0.5c-2-0.3-4.3-0.5-6.4-0.5c0-1.2-0.2-2.5-0.4-3.7c-0.1-0.6-0.2-1.2-0.3-1.6
			s-0.2-0.7-0.3-0.9s-0.2-0.5-0.3-0.7c-0.1-0.3-0.2-0.5-0.4-0.8c-0.2-0.3-0.6-0.7-1-0.9c-0.4-0.2-0.8-0.2-1.3,0.2
			c-0.1,0.1-0.1,0.2-0.2,0.3c-0.4,1-0.7,2-0.9,3c-0.1,0.5-0.2,1-0.3,1.7c-0.2,1.3-0.3,2.8-0.6,4.2c-1.9,0.2-3.8,0.6-5.8,1.1
			c-0.9,0.3-1.8,0.6-2.6,1c-0.4,0.2-0.9,0.4-1.2,0.6c-0.7,0.4-1.2,0.7-1.8,1.2c-0.3,0.2-0.5,0.4-0.8,0.7c-0.7,0.8-1,1.7-0.9,2.7
			c0.1,0.8,0.5,1.4,1,2.2c0.1,0.2,0.3,0.4,0.6,0.7c0.3,0.3,0.7,0.8,1.2,1.2c0.8,0.8,1.6,1.6,2.4,2.2c0.4,0.3,0.7,0.6,1.1,0.8
			c0.4,0.3,0.8,0.5,1.4,0.9c0.6,0.4,1.5,0.9,2.4,1.5c0.9,0.5,1.8,1.1,2.7,1.6c0,0.2,0.1,0.4,0.1,0.6c0.1,0.2,0.1,0.5,0.2,0.8
			c0.1,0.3,0.2,0.8,0.3,1.2c0.1,0.3,0.2,0.5,0.3,0.8c0.2,0.2,0.3,0.4,0.6,0.6c0.7,0.6,1.6,0.7,2.4,0.4c0.3-0.1,0.6-0.3,0.9-0.5
			c0.3-0.2,0.5-0.5,0.7-0.8c0.2-0.3,0.3-0.6,0.4-1c1.1,0.2,2.2,0.3,3.3,0.4c1.1,0.1,2.2,0.2,3.2,0.2c1.8,0.1,3.2,0,4.8-0.1
			c2.1-0.2,4.5-0.7,6.6-1.5c1.4-0.5,2.8-1.2,4-2c1.3-0.8,2.5-1.7,3.6-2.7c0.4-0.4,0.8-0.8,1.1-1.2c0.7-0.9,1.4-1.8,1.9-2.7
			C174.5,452.3,174.8,449.7,174.1,447.2L174.1,447.2L174.1,447.2L174.1,447.2z M134.4,456.2c-0.7-0.3-1.3-0.7-1.9-1.1
			s-1-0.7-1.5-1.1c-0.5-0.4-0.9-0.8-1.4-1.2s-0.8-0.9-1.1-1.1c-0.2-0.3-0.3-0.4-0.3-0.4c-0.1-0.3,0-0.6,0.2-0.8
			c0.1-0.1,0.2-0.1,0.5-0.3c0.4-0.1,1-0.4,1.7-0.6c0.7-0.2,1.4-0.4,1.9-0.5c0.6-0.1,1.1-0.2,1.4-0.3c0.3-0.1,0.5-0.1,1-0.1
			c0.4,0,1-0.1,1.6-0.1c0.6,0,1.2-0.1,1.8-0.1l0,0l0,9l0,0C137.2,457.3,135.7,456.9,134.4,456.2L134.4,456.2L134.4,456.2
			L134.4,456.2z"/>
		<path class="st1" d="M191.4,430c-0.1-0.4-0.2-0.7-0.3-1c-0.1-0.3-0.3-0.5-0.6-0.7c-0.8-0.7-1.7-0.9-2.6-0.7
			c-0.1-0.2-0.2-0.4-0.4-0.6c-0.3-0.4-0.8-0.7-1.2-0.8c-0.8-0.2-1.6-0.3-2.4-0.3c-0.4,0-0.8,0-1.6,0.1s-1.8,0.3-2.9,0.6
			c-1.1,0.3-2.1,0.7-3,1.2c-1,0.5-1.9,1.1-2.8,1.8c-0.4,0.3-0.7,0.6-1,0.9c-1.3,1.5-2.1,3.1-2.1,4.6c0,0.4,0,0.8,0.1,1.2
			c0.1,0.6,0.3,1.1,0.5,1.6c0.2,0.5,0.6,1.1,0.9,1.8c0.2,0.4,0.4,0.7,0.5,1c0.1,0.2,0.2,0.4,0.3,0.5s0.2,0.2,0.3,0.3
			c0.3,0.2,0.7,0.2,1.2,0.1c0.3,0,0.5-0.1,0.8-0.2c0.2-0.1,0.5-0.3,0.7-0.5c0.2-0.2,0.3-0.5,0.5-0.6c0.2-0.1,0.4,0.1,0.6,0.2
			c0.2,0.1,0.4,0.2,0.7,0.2s0.5,0.1,0.8,0.1c0.4,0,0.9,0,1.3,0c0.4,0,0.8-0.1,1.1-0.1c0.3,0,0.4-0.1,0.7-0.1
			c0.6-0.1,1.8-0.4,2.7-0.7c0.9-0.4,2-1,3-1.8c1.1-0.9,2.1-2,2.8-3c0.8-1.1,1.2-2.2,1.3-3.3C191.5,431.1,191.5,430.5,191.4,430
			L191.4,430L191.4,430L191.4,430z M176.6,432.9c-0.8,0.7-1.5,1.5-2.2,2.3c0.2-0.6,0.4-1.2,0.7-1.8c0.3-0.6,0.7-1.1,1.2-1.6
			c0.5-0.5,1-0.9,1.5-1.2c1.4-0.8,2.8-1.2,4.1-1.4c-1,0.5-1.9,1-2.8,1.6C178.3,431.5,177.4,432.2,176.6,432.9L176.6,432.9
			L176.6,432.9L176.6,432.9z M187.2,432.6c-0.1,0.5-0.3,1-0.7,1.4c-0.2,0.2-0.4,0.4-0.6,0.5c-0.5,0.4-1.1,0.7-1.7,1
			c-1.1,0.6-2.3,1.2-3.5,1.5c-1.2,0.2-2.4,0.2-3.6-0.1c0.6-0.8,1.2-1.6,1.9-2.3c0.7-0.7,1.5-1.3,2.4-1.8c0.9-0.5,1.8-0.9,2.7-1.2
			c0.7-0.2,1.4-0.3,2.1-0.2c0.2,0,0.4,0.1,0.5,0.3C187.2,432,187.3,432.3,187.2,432.6L187.2,432.6L187.2,432.6L187.2,432.6z"/>
		<path class="st1" d="M256.5,450.2c0-0.7-0.1-1.4-0.3-2c-0.2-0.7-0.5-1.3-0.8-1.9c-0.4-0.6-0.8-1.1-1.3-1.6c-1-0.8-2.2-1.1-3.3-0.7
			c-0.4,0.1-0.7,0.3-1.6,1c-0.9,0.7-2.4,1.9-3.8,3.1c-1.4,1.2-2.8,2.5-4.1,3.9c0.3-0.9,0.6-1.7,1-2.6c0.4-0.8,0.8-1.7,1.1-2.3
			s0.5-1,0.7-1.4c0.2-0.4,0.4-0.8,0.5-1.1c0.2-0.6,0.2-0.8,0.2-1.2c0-0.2,0-0.4-0.1-0.5c0-0.1-0.1-0.2-0.1-0.3c-0.4-0.5-1-0.3-1.6,0
			c-0.1,0.1-0.2,0.2-0.5,0.4c-0.2,0.2-0.6,0.6-1,1c-0.4,0.4-0.7,0.8-1.1,1.2c-0.5,0.6-1,1.3-1.5,2c-0.4,0.7-0.9,1.4-1.2,2.1
			c-0.4,0.7-0.7,1.5-0.9,2c-0.2,0.5-0.3,0.8-0.3,1.1c-0.1,0.3-0.1,0.6-0.1,0.9c0,0.3,0,0.6,0,1c0,0.8,0.2,1.8,0.4,2.7
			c0.1,0.5,0.3,0.9,0.4,1.4c-0.6,1.4-1.2,2.8-1.7,4.2c-0.5,1.4-0.9,2.9-1.3,4.4c-0.3,1.5-0.6,3-0.7,3.9c-0.1,0.9-0.1,1.2-0.1,1.5
			c0.1,1.4,0.7,2.7,2.1,4.1c0.9,0.8,2,0.8,3.1-0.1c0.6-2.3,1.2-4.6,1.7-6.9l0,0l0.6-1.8l0,0c0.2-0.6,0.5-1.2,0.8-2.1
			c0.4-0.9,0.8-2.1,1.3-3.3c0.6-0.1,1.1-0.2,1.7-0.3c0.6-0.1,1.1-0.3,1.6-0.4c0.9-0.2,1.5-0.5,2.3-0.9c0.3-0.2,0.7-0.4,1.1-0.7
			c0.4-0.3,1-0.7,1.5-1.1c0.5-0.4,1.1-0.9,1.5-1.3c0.9-0.8,1.5-1.6,2.1-2.4C256.1,453.6,256.6,451.9,256.5,450.2L256.5,450.2
			L256.5,450.2L256.5,450.2z M251.9,452.7c-0.3,0.5-0.7,0.9-1.1,1.3c-0.8,0.6-1.6,1.2-2.4,1.7c-0.7,0.4-1.3,0.4-1.9,0.1
			c0.4-0.9,0.8-1.7,1.3-2.5c0.5-0.8,1-1.6,1.6-2.3c0.6-0.7,1.2-1.4,1.9-2.1c0.3-0.3,0.6-0.3,0.9-0.2c0.3,0.1,0.5,0.5,0.5,0.7
			C252.8,450.6,252.5,451.7,251.9,452.7L251.9,452.7L251.9,452.7L251.9,452.7z"/>
	</g>
	<g id="disney">
		<path class="st1" d="M139.1,758.6c0,0.2,0.1,0.5,0.2,0.7c0.1,0.2,0.2,0.4,0.4,0.6c0.6,0.6,1.3,0.8,2,0.7c0.4-0.1,0.8-0.2,1.2-0.5
			c0.5-0.4,0.6-0.8,0.7-1.2c0.1-1.2,0.1-2.3,0.1-3.5c0-1.2,0-2.3-0.1-3.3c0-1-0.1-1.8-0.1-2.5c0-0.8-0.1-1.6-0.1-2.1
			c0-0.5-0.1-0.7-0.1-1c0-0.2-0.1-0.4-0.1-0.7c-0.1-0.2-0.1-0.4-0.2-0.6c-0.2-0.5-0.3-0.8-0.8-1.2c-0.4-0.4-0.9-0.5-1.4-0.3
			c-0.2,0.1-0.3,0.1-0.4,0.3c-0.3,0.3-0.4,0.6-0.5,1c-0.1,0.2-0.1,0.4-0.1,0.6c0,0.2-0.1,0.4-0.1,0.7c0,0.3-0.1,0.7-0.1,1.1
			c0,0.4-0.1,0.8-0.1,1.3c0,1-0.1,2.2-0.3,3.3C138.9,754.1,138.9,756.4,139.1,758.6L139.1,758.6z"/>
		<path class="st1" d="M174.5,748.6c-0.5-1.7-0.9-3.3-1.4-5l0,0L174.5,748.6L174.5,748.6z"/>
		<path class="st1" d="M174.5,748.6l0.4,1.8l0,0c0.2,0.8,0.4,1.7,0.3,1.8c-0.1,0.1-0.5-0.4-0.9-1c-0.3-0.3-0.6-0.7-1.2-1.5
			c-0.6-0.8-1.6-2-2.2-2.8c-0.6-0.7-0.8-1-1-1.2c-0.4-0.5-0.8-0.9-1.3-1.2c-0.5-0.4-1.1-0.5-1.7-0.2c-0.2,0.1-0.4,0.2-0.5,0.4
			c-0.1,0.1-0.3,0.3-0.3,0.5c-0.8,1.7-1.3,3.4-1.5,5.1l0,0l-0.6,3.3l0,0c-0.4,1.7-0.3,3.4,0.3,5.2c0.1,0.2,0.2,0.4,0.4,0.5
			c0.5,0.5,1.2,0.6,1.9,0.4c0.2-0.1,0.4-0.2,0.6-0.3c0.6-0.4,0.7-1,0.8-1.5c0.3-2.3,0.6-4.7,0.9-7c1,2.1,2.3,4.3,4,6.4
			c0.6,0.7,1.2,1.3,1.8,1.6c0.9,0.4,1.8,0.2,2.9-0.5c0.2-0.2,0.4-0.3,0.6-0.5c0.4-0.4,0.7-0.8,0.9-1.3c0.8-1.4,1-3,0.9-4.5
			c0-1-0.2-2.1-0.4-3.1c-0.2-0.9-0.5-1.8-0.9-2.7c-0.4-0.9-0.8-1.7-1.3-2.5c-0.5-0.8-1.1-1.6-1.7-2.3c-0.5-0.6-1.1-0.9-1.7-0.8
			c-0.2,0-0.3,0.1-0.4,0.1c-0.5,0.3-0.6,0.7-0.6,1.2c0.1,0.6,0.2,1.1,0.3,1.7l0,0L174.5,748.6L174.5,748.6z"/>
		<path class="st1" d="M181,746.6c0.6,0.7,1.3,1,2,1.1l0,0l-1,2.1l0,0c-0.2,0-0.3,0.1-0.5,0.2c-0.7,0.5-0.8,1.1-0.6,1.8
			c0.1,0.2,0.1,0.3,0.2,0.4c-0.7,1.1-1.2,2.3-1.4,3.4c-0.1,0.9,0.2,1.9,0.6,2.8c0.2,0.4,0.4,0.7,0.5,1.1c0.2,0.3,0.4,0.5,0.6,0.8
			s0.5,0.4,0.8,0.5c1.3,0.5,2.7,0.4,4.1-0.1c1-0.4,2.1-0.8,3.1-1.3c1-0.5,2-1,2.5-1.3c0.6-0.3,0.7-0.4,0.8-0.5
			c0.5-0.6,0.5-1.3,0.1-2.1c-0.1-0.2-0.3-0.3-0.4-0.5c-0.8-0.7-1.8-0.5-2.7-0.4c-1,0.2-1.9,0.5-2.9,0.7c-1,0.4-2,0.7-2.2,0.3
			c-0.2-0.4,0.4-1.6,1-2.7c0.3,0.1,0.7,0.1,1,0.1c1.1,0,2.2,0,3.3,0c0,0,0,0,0.2,0c0.3-0.1,1-0.3,1.5-0.4c0.3-0.1,0.6-0.4,0.8-0.6
			c0.2-0.4,0.2-0.8,0.1-1.2c-0.1-0.2-0.1-0.4-0.3-0.5c-0.4-0.5-0.9-0.6-1.4-0.7c-1.2-0.1-2.4-0.1-3.5-0.2l0,0l0.1-1.2l0,0
			c0.9,0.1,1.9,0,2.8-0.1c1.4-0.1,2.6-0.4,3.9-0.7c0.3-0.1,0.6-0.2,0.8-0.4c0.5-0.5,0.6-0.9,0.3-1.5c-0.2-0.4-0.5-0.8-0.8-1.2
			c-0.3-0.4-0.7-0.7-1.1-0.9c-0.8-0.5-1.8-0.7-2.8-0.7c-2.6,0.1-5.1,0.2-7.7,0.9c-0.6,0.2-1.2,0.4-1.9,0.7c-0.3,0.1-0.5,0.3-0.5,0.6
			C180.5,745.4,180.5,746,181,746.6L181,746.6z"/>
		<path class="st1" d="M150.5,748c3.9-0.5,7.8-0.9,11.7-1.4c0.4-0.1,0.9-0.2,1.4-0.6c0.5-0.5,0.6-0.9,0.5-1.4
			c-0.1-0.2-0.3-0.5-0.6-0.8c-0.2-0.1-0.4-0.3-0.6-0.4c-0.2-0.1-0.4-0.2-0.7-0.2c-0.6-0.1-1.4-0.3-2.1-0.3c-0.4,0-0.7-0.1-1.4-0.1
			s-1.7,0-2.8,0.1c-2,0.2-4.1,0.6-6.1,1.3c-0.7,0.2-1.3,0.6-2,1c-0.3,0.2-0.6,0.4-0.8,0.6c-0.8,0.7-1.1,1.4-1.3,2.1
			c-0.1,0.4-0.1,0.8,0,1.1c0.1,0.4,0.2,0.7,0.4,1c0.2,0.3,0.5,0.6,0.8,0.8c0.6,0.4,1.3,0.6,2,0.7c1.4,0.2,2.7,0,4.1,0
			c1.3,0,2.5,0,3.8,0.3c0.6,0.1,1.1,0.3,1.7,0.5c0.5,0.2,1.1,0.5,1.6,0.8c0.4,0.3,0.4,0.6,0.3,0.9c-0.1,0.3-0.7,0.7-1.1,1
			c-0.2,0.1-0.4,0.2-0.6,0.3c-2.9,1.3-6.1,1.4-9.2,0.3c-0.1,0-0.2-0.1-0.3-0.3c-0.1-0.2-0.1-0.4,0.2-0.7c0.3-0.2,0.6-0.2,1-0.2
			c0.6,0,1.4,0.1,2.2,0.5c1.2,0.5,2.6,0.7,3.9,0.5c0.7-0.1,1.3-0.3,1.9-0.6c0.1-0.1,0.3-0.1,0.4-0.4c0.1-0.2,0.1-0.3,0.1-0.5
			c-0.1-0.3-0.3-0.6-0.7-1c-0.5-0.4-1.1-0.6-1.7-0.8c-0.2-0.1-0.4-0.1-0.9-0.1c-0.4,0-1-0.1-1.7-0.1s-1.2,0-1.9,0
			c-0.6,0-1.2,0.1-1.7,0.1c-0.4,0.1-0.7,0.1-0.9,0.2c-0.3,0.1-0.5,0.2-0.7,0.3c-0.2,0.1-0.5,0.2-0.7,0.4c-0.9,0.7-1.2,1.4-1.3,2.1
			c0,0.2,0,0.4,0.1,0.7c0,0.2,0.1,0.4,0.3,0.7c0.2,0.3,0.5,0.7,0.8,1.1c0.3,0.4,0.7,0.7,1.1,1c0.4,0.3,0.8,0.5,1.4,0.8
			c0.6,0.2,1.5,0.5,2.3,0.7c0.8,0.2,1.7,0.3,2.6,0.3c0.9,0,1.7,0,2.3-0.1c0.6-0.1,1-0.2,1.4-0.3c0.4-0.1,0.7-0.2,1.1-0.4
			c0.4-0.1,0.7-0.3,1-0.4c0.3-0.1,0.5-0.3,0.8-0.4c0.2-0.2,0.4-0.3,0.6-0.5c0.7-0.6,1-1.2,1.2-1.8c0.1-0.2,0.1-0.4,0.2-0.8
			c0.1-0.7,0.1-1.9-0.3-2.9c-0.2-0.5-0.4-0.9-0.7-1.3c-0.3-0.4-0.6-0.7-1-1c-0.8-0.6-1.7-0.9-2.6-1c-2-0.2-4.1-0.4-6.1-0.7
			C152.1,748.4,151.3,748.2,150.5,748L150.5,748z"/>
		<path class="st1" d="M138.7,747.2c-0.6-1.9-1.5-3.8-3-5.6c-0.6-0.8-1.2-1.6-1.9-2.4c-0.7-0.8-1.4-1.5-2.1-2.1
			c-0.7-0.7-1.5-1.3-2.3-1.9c-0.8-0.7-1.7-1.3-2.6-2s-1.8-1.2-2.7-1.8c-0.9-0.6-1.9-1.1-2.8-1.6c-2.3-1.2-4.8-2.2-7.3-3
			c-5-1.6-10.3-2.3-15.5-2.1c-1.8,0-3.6,0.3-5.5,0.9c-0.6,0.2-1.1,0.4-1.7,0.7c-0.5,0.3-1.1,0.5-1.6,0.9c-0.5,0.3-1,0.7-1.5,1
			c-0.6,0.4-0.7,1-0.5,1.5c0.1,0.3,0.5,0.6,0.9,0.8c0.2,0.1,0.5,0.2,0.8,0.2c0.8,0.1,1.7-0.2,2.6-0.7c0.2-0.1,0.5-0.4,0.4-0.7
			c0-0.1-0.2-0.3-0.4-0.4c-0.3-0.1-0.6-0.1-0.9,0.1c0.6-0.4,1.2-0.6,1.8-0.8c0.3-0.1,0.6-0.1,1.4-0.2s2.1-0.1,3.3,0
			c2.5,0.1,5,0.4,7.5,1.1c2.1,0.6,4.2,1.3,6.3,2.1c2.1,0.8,4.1,1.6,5.6,2.2c1.4,0.6,2.3,1,3.1,1.5c0.8,0.4,1.6,0.9,2.4,1.4
			c0.8,0.5,1.5,1,2.2,1.6c0.9,0.7,1.8,1.5,2.6,2.3c0.8,0.8,1.6,1.6,2.4,2.5c0.4,0.5,0.8,1,1.2,1.5c0.8,1.1,1.4,2.2,1.8,3.3
			c0.3,0.7,0.5,1.5,0.5,2.3c0,0.8-0.1,1.6-0.3,2.3c-0.2,0.7-0.6,1.4-1.1,2.1c-0.5,0.6-1.1,1.1-2,1.7c-0.9,0.6-2.3,1.2-3.6,1.7
			c-2.7,1-5.6,1.4-8.4,1.3c-1.9-0.1-3.8-0.2-5.6-0.5l0,0l-0.1-10.2l0,0c3.6,0.3,7.3,1,10.9,2.3c-0.2,0.3-0.4,0.7-0.8,1
			c-0.3,0.2-0.5,0.4-0.7,0.7c-0.1,0.2-0.2,0.4-0.1,0.7c0,0.1,0.1,0.1,0.2,0.2c0.1,0.1,0.2,0.2,0.4,0.3c0.4,0.2,1,0.4,1.6,0.3
			c0.9-0.1,1.8-0.6,2.7-1.4c0.3-0.3,0.5-0.6,0.6-0.9c0.6-1.2,0.6-2.6-0.5-3.9c-0.2-0.2-0.4-0.5-0.6-0.7c-0.2-0.2-0.5-0.4-0.7-0.5
			c-1.4-0.8-2.9-1.4-4.5-1.8c-0.8-0.2-1.6-0.3-2.5-0.5c-1.8-0.3-3.8-0.4-5.8-0.5c0-1.1-0.2-2.2-0.3-3.3c-0.1-0.5-0.2-1.1-0.3-1.5
			s-0.2-0.6-0.2-0.8c-0.1-0.2-0.2-0.4-0.2-0.6c-0.1-0.3-0.2-0.5-0.3-0.7c-0.1-0.3-0.5-0.7-0.9-0.8c-0.3-0.2-0.7-0.2-1.2,0.2
			c-0.1,0.1-0.1,0.2-0.2,0.3c-0.4,0.9-0.6,1.8-0.8,2.7c-0.1,0.5-0.2,0.9-0.2,1.5c-0.1,1.1-0.3,2.5-0.5,3.8c-1.7,0.2-3.5,0.5-5.2,1
			c-0.8,0.2-1.6,0.5-2.4,0.9c-0.4,0.2-0.8,0.4-1.1,0.5c-0.6,0.3-1.1,0.6-1.6,1.1c-0.2,0.2-0.5,0.4-0.7,0.6c-0.7,0.7-0.9,1.6-0.8,2.4
			c0.1,0.7,0.4,1.3,0.9,1.9c0.1,0.2,0.3,0.3,0.5,0.6c0.3,0.3,0.7,0.7,1.1,1.1c0.8,0.8,1.5,1.4,2.2,2c0.3,0.3,0.7,0.5,1,0.8
			c0.3,0.2,0.7,0.5,1.3,0.8c0.6,0.4,1.4,0.8,2.2,1.3c0.8,0.5,1.6,0.9,2.4,1.4c0,0.2,0.1,0.4,0.1,0.6c0,0.2,0.1,0.4,0.2,0.7
			c0.1,0.3,0.2,0.7,0.3,1.1c0.1,0.2,0.2,0.5,0.3,0.7c0.1,0.2,0.3,0.4,0.5,0.6c0.7,0.5,1.5,0.6,2.2,0.3c0.3-0.1,0.5-0.2,0.8-0.4
			c0.2-0.2,0.5-0.4,0.6-0.7c0.2-0.3,0.3-0.6,0.4-0.9c1,0.1,2,0.3,3,0.3c1,0.1,2,0.2,2.9,0.2c1.7,0.1,2.9,0,4.3-0.1
			c1.9-0.2,4-0.6,5.9-1.4c1.3-0.5,2.5-1.1,3.6-1.8s2.2-1.5,3.2-2.4c0.4-0.3,0.7-0.7,1-1.1c0.7-0.8,1.2-1.6,1.7-2.4
			C139.1,751.8,139.3,749.5,138.7,747.2L138.7,747.2L138.7,747.2L138.7,747.2z M103,755.3c-0.6-0.3-1.2-0.6-1.7-1s-0.9-0.7-1.4-1
			c-0.4-0.3-0.8-0.7-1.2-1.1s-0.8-0.8-1-1c-0.2-0.2-0.2-0.3-0.3-0.4c-0.1-0.3,0-0.5,0.2-0.7c0.1-0.1,0.1-0.1,0.5-0.2
			s0.9-0.3,1.5-0.5c0.6-0.2,1.2-0.3,1.8-0.4c0.5-0.1,1-0.2,1.3-0.2c0.3,0,0.5-0.1,0.9-0.1c0.4,0,0.9-0.1,1.5-0.1
			c0.6,0,1.1-0.1,1.7-0.1l0,0l0,8.1l0,0C105.5,756.3,104.2,755.9,103,755.3L103,755.3L103,755.3L103,755.3z"/>
		<path class="st1" d="M154.3,731.7c0-0.4-0.1-0.7-0.3-0.9c-0.1-0.2-0.3-0.5-0.5-0.7c-0.7-0.6-1.5-0.8-2.3-0.6
			c-0.1-0.2-0.2-0.4-0.3-0.6c-0.3-0.4-0.7-0.6-1.1-0.7c-0.7-0.2-1.4-0.3-2.2-0.3c-0.4,0-0.7,0-1.4,0.1c-0.7,0.1-1.6,0.3-2.6,0.5
			c-0.9,0.3-1.9,0.6-2.7,1.1c-0.9,0.5-1.7,1-2.5,1.6c-0.3,0.3-0.6,0.5-0.9,0.8c-1.2,1.3-1.9,2.8-1.9,4.2c0,0.4,0,0.7,0.1,1
			c0.1,0.6,0.2,1,0.4,1.5c0.2,0.5,0.5,1,0.8,1.6c0.2,0.3,0.4,0.6,0.5,0.9c0.1,0.2,0.2,0.3,0.3,0.4c0.1,0.1,0.2,0.2,0.3,0.2
			c0.2,0.1,0.7,0.2,1.1,0.1c0.2,0,0.5-0.1,0.7-0.2s0.4-0.3,0.6-0.5c0.2-0.2,0.3-0.4,0.5-0.5c0.2,0,0.4,0.1,0.6,0.2
			c0.2,0.1,0.4,0.2,0.6,0.2c0.2,0,0.4,0.1,0.8,0.1c0.3,0,0.8,0,1.2,0c0.4,0,0.7-0.1,1-0.1c0.2,0,0.4,0,0.6-0.1
			c0.6-0.1,1.6-0.3,2.4-0.7c0.8-0.3,1.8-0.9,2.7-1.6c1-0.8,1.9-1.8,2.5-2.7c0.7-1,1.1-2,1.2-3C154.4,732.7,154.4,732.1,154.3,731.7
			L154.3,731.7L154.3,731.7L154.3,731.7z M141,734.3c-0.7,0.7-1.4,1.4-2,2.1c0.1-0.6,0.4-1.1,0.6-1.6c0.3-0.5,0.6-1,1.1-1.4
			s0.9-0.8,1.4-1.1c1.2-0.7,2.5-1.1,3.7-1.3c-0.9,0.4-1.7,0.9-2.5,1.5C142.5,733.1,141.7,733.7,141,734.3L141,734.3L141,734.3
			L141,734.3z M150.5,734c-0.1,0.4-0.3,0.9-0.6,1.3c-0.2,0.2-0.3,0.3-0.5,0.5c-0.5,0.3-1,0.6-1.5,0.9c-1,0.5-2,1.1-3.1,1.3
			c-1.1,0.2-2.2,0.2-3.2-0.1c0.5-0.7,1.1-1.4,1.8-2c0.7-0.6,1.4-1.1,2.2-1.6c0.8-0.5,1.6-0.8,2.4-1.1c0.6-0.2,1.3-0.2,1.9-0.1
			c0.2,0,0.3,0.1,0.5,0.2C150.5,733.5,150.5,733.8,150.5,734L150.5,734L150.5,734L150.5,734z"/>
		<path class="st1" d="M212.9,749.8c0-0.6-0.1-1.2-0.3-1.8c-0.2-0.6-0.4-1.2-0.8-1.7c-0.3-0.5-0.7-1-1.2-1.4c-0.9-0.7-1.9-1-3-0.6
			c-0.3,0.1-0.7,0.3-1.5,0.9c-0.8,0.6-2.2,1.7-3.4,2.8c-1.3,1.1-2.5,2.3-3.7,3.5c0.3-0.8,0.6-1.6,0.9-2.3c0.3-0.8,0.7-1.5,1-2
			s0.5-0.9,0.7-1.3c0.2-0.4,0.3-0.7,0.4-1c0.2-0.5,0.2-0.7,0.2-1.1c0-0.2,0-0.3-0.1-0.4c0-0.1-0.1-0.2-0.1-0.3
			c-0.4-0.5-0.9-0.3-1.4,0c-0.1,0.1-0.2,0.2-0.4,0.4s-0.5,0.6-0.9,0.9c-0.3,0.4-0.6,0.7-0.9,1.1c-0.5,0.6-0.9,1.2-1.3,1.8
			c-0.4,0.6-0.8,1.3-1.1,1.9c-0.3,0.7-0.6,1.4-0.8,1.8c-0.2,0.5-0.2,0.7-0.3,1s-0.1,0.5-0.1,0.8c0,0.3,0,0.5,0,0.9
			c0,0.7,0.2,1.6,0.4,2.5c0.1,0.4,0.2,0.8,0.4,1.2c-0.6,1.2-1.1,2.5-1.5,3.8c-0.4,1.3-0.8,2.6-1.1,3.9c-0.3,1.3-0.5,2.7-0.6,3.5
			c-0.1,0.8-0.1,1.1-0.1,1.4c0.1,1.2,0.7,2.5,1.9,3.7c0.8,0.8,1.8,0.7,2.8-0.1c0.5-2.1,1.1-4.1,1.6-6.2l0,0l0.5-1.7l0,0
			c0.2-0.5,0.4-1.1,0.7-1.9c0.3-0.8,0.8-1.9,1.2-3c0.5-0.1,1-0.2,1.5-0.3c0.5-0.1,1-0.2,1.4-0.3c0.8-0.2,1.4-0.4,2-0.8
			c0.3-0.2,0.6-0.3,1-0.6c0.4-0.3,0.9-0.6,1.4-1c0.5-0.4,1-0.8,1.4-1.2c0.8-0.8,1.4-1.4,1.9-2.1C212.5,752.9,213,751.4,212.9,749.8
			L212.9,749.8L212.9,749.8L212.9,749.8z M208.7,752.1c-0.3,0.4-0.6,0.8-1,1.1c-0.7,0.6-1.4,1.1-2.1,1.6c-0.6,0.4-1.2,0.4-1.7,0.1
			c0.3-0.8,0.7-1.5,1.2-2.2c0.4-0.7,0.9-1.4,1.4-2.1c0.5-0.7,1.1-1.3,1.7-1.9c0.3-0.3,0.6-0.3,0.8-0.2c0.2,0.1,0.5,0.4,0.5,0.6
			C209.5,750.2,209.3,751.3,208.7,752.1L208.7,752.1L208.7,752.1L208.7,752.1z"/>
	</g>
	<g id="D">
		<path class="st1" d="M168.3,1051.1c-0.4-1.3-1.1-2.7-2.1-4c-0.4-0.6-0.9-1.1-1.4-1.7c-0.5-0.5-1-1-1.5-1.5
			c-0.5-0.5-1.1-0.9-1.7-1.4c-0.6-0.5-1.2-1-1.8-1.4c-0.6-0.4-1.3-0.9-1.9-1.3c-0.7-0.4-1.3-0.8-2-1.1c-1.7-0.8-3.4-1.5-5.2-2.1
			c-3.6-1.1-7.3-1.6-11-1.5c-1.3,0-2.6,0.2-3.9,0.6c-0.4,0.1-0.8,0.3-1.2,0.5c-0.4,0.2-0.8,0.4-1.1,0.6c-0.4,0.2-0.7,0.5-1.1,0.7
			c-0.4,0.3-0.5,0.7-0.3,1.1c0.1,0.2,0.3,0.4,0.6,0.5c0.1,0.1,0.3,0.1,0.5,0.1c0.6,0,1.2-0.1,1.8-0.5c0.1-0.1,0.4-0.3,0.3-0.5
			c0-0.1-0.1-0.2-0.3-0.3c-0.2-0.1-0.4,0-0.7,0c0.4-0.3,0.8-0.5,1.3-0.6c0.2-0.1,0.5-0.1,1-0.1c0.6,0,1.5-0.1,2.4,0
			c1.8,0.1,3.5,0.3,5.3,0.8c1.5,0.4,3,0.9,4.5,1.5c1.5,0.5,2.9,1.1,4,1.6c1,0.4,1.6,0.7,2.2,1c0.6,0.3,1.1,0.6,1.7,1
			c0.5,0.4,1.1,0.7,1.6,1.1c0.6,0.5,1.3,1,1.9,1.6c0.6,0.6,1.2,1.2,1.7,1.7c0.3,0.3,0.6,0.7,0.8,1c0.5,0.8,1,1.5,1.3,2.3
			c0.2,0.5,0.3,1.1,0.4,1.6c0,0.6-0.1,1.1-0.2,1.6c-0.2,0.5-0.4,1-0.8,1.5c-0.3,0.4-0.8,0.8-1.4,1.2c-0.7,0.4-1.6,0.8-2.6,1.2
			c-1.9,0.7-4,1-6,1c-1.3-0.1-2.7-0.2-4-0.4l0,0l-0.1-7.2l0,0c2.6,0.2,5.2,0.7,7.8,1.6c-0.1,0.2-0.3,0.5-0.6,0.7
			c-0.2,0.1-0.4,0.3-0.5,0.5c-0.1,0.1-0.1,0.3-0.1,0.5c0,0.1,0.1,0.1,0.1,0.2c0.1,0.1,0.2,0.1,0.3,0.2c0.3,0.2,0.7,0.3,1.1,0.2
			c0.7-0.1,1.3-0.4,1.9-1c0.2-0.2,0.3-0.4,0.4-0.6c0.4-0.8,0.4-1.8-0.3-2.8c-0.1-0.2-0.3-0.3-0.4-0.5s-0.3-0.3-0.5-0.4
			c-1-0.6-2.1-1-3.2-1.3c-0.6-0.1-1.1-0.2-1.7-0.3c-1.3-0.2-2.7-0.3-4.1-0.3c0-0.8-0.1-1.6-0.2-2.4c-0.1-0.4-0.1-0.8-0.2-1.1
			c-0.1-0.3-0.1-0.4-0.2-0.6c-0.1-0.2-0.1-0.3-0.2-0.4c-0.1-0.2-0.1-0.3-0.2-0.5c-0.1-0.2-0.4-0.5-0.6-0.6c-0.2-0.1-0.5-0.1-0.8,0.1
			c-0.1,0.1-0.1,0.1-0.1,0.2c-0.3,0.6-0.5,1.3-0.6,1.9c-0.1,0.3-0.1,0.7-0.2,1.1c-0.1,0.8-0.2,1.8-0.4,2.7c-1.2,0.1-2.5,0.4-3.7,0.7
			c-0.6,0.2-1.1,0.4-1.7,0.6c-0.3,0.1-0.5,0.3-0.8,0.4c-0.4,0.2-0.8,0.5-1.1,0.7c-0.2,0.1-0.3,0.3-0.5,0.4c-0.5,0.5-0.6,1.1-0.6,1.7
			c0.1,0.5,0.3,0.9,0.6,1.4c0.1,0.1,0.2,0.2,0.4,0.4c0.2,0.2,0.5,0.5,0.8,0.8c0.5,0.5,1.1,1,1.5,1.4c0.2,0.2,0.5,0.4,0.7,0.5
			c0.2,0.2,0.5,0.3,0.9,0.6s1,0.6,1.5,0.9c0.6,0.3,1.1,0.7,1.7,1c0,0.1,0.1,0.3,0.1,0.4c0,0.1,0.1,0.3,0.1,0.5
			c0.1,0.2,0.1,0.5,0.2,0.8c0,0.2,0.1,0.3,0.2,0.5c0.1,0.1,0.2,0.3,0.4,0.4c0.5,0.4,1,0.4,1.6,0.2c0.2-0.1,0.4-0.2,0.6-0.3
			c0.2-0.1,0.3-0.3,0.5-0.5c0.1-0.2,0.2-0.4,0.3-0.6c0.7,0.1,1.4,0.2,2.1,0.2c0.7,0.1,1.4,0.1,2,0.1c1.2,0,2.1,0,3.1-0.1
			c1.4-0.2,2.9-0.4,4.2-1c0.9-0.3,1.8-0.8,2.6-1.3c0.8-0.5,1.6-1.1,2.3-1.7c0.3-0.2,0.5-0.5,0.7-0.8c0.5-0.6,0.9-1.1,1.2-1.7
			C168.6,1054.4,168.8,1052.7,168.3,1051.1L168.3,1051.1L168.3,1051.1L168.3,1051.1z M142.9,1056.8c-0.4-0.2-0.8-0.5-1.2-0.7
			c-0.4-0.2-0.7-0.5-1-0.7c-0.3-0.2-0.6-0.5-0.9-0.8c-0.3-0.3-0.5-0.6-0.7-0.7c-0.1-0.2-0.2-0.2-0.2-0.3c-0.1-0.2,0-0.4,0.1-0.5
			c0,0,0.1-0.1,0.3-0.2c0.2-0.1,0.7-0.2,1.1-0.4c0.4-0.1,0.9-0.2,1.2-0.3c0.4-0.1,0.7-0.1,0.9-0.2c0.2,0,0.4,0,0.6-0.1
			c0.3,0,0.7-0.1,1-0.1c0.4,0,0.8,0,1.2,0l0,0l0,5.8l0,0C144.7,1057.6,143.8,1057.3,142.9,1056.8L142.9,1056.8L142.9,1056.8
			L142.9,1056.8z"/>
	</g>
</g>
<g id="Layer_2">
</g>
</svg>
